<svg width="375" height="368" viewBox="0 0 375 368" fill="none" xmlns="http://www.w3.org/2000/svg">
<mask id="mask0_1377_20818" style="mask-type:alpha" maskUnits="userSpaceOnUse" x="20" y="10" width="335" height="335">
<rect x="20" y="10" width="335" height="335" fill="#D9D9D9"/>
</mask>
<g mask="url(#mask0_1377_20818)">
<path d="M338 148L315.268 97.2163C314.782 96.1292 314.805 94.8817 315.331 93.8134L332 60H301.194C299.565 60 298.099 59.0129 297.487 57.5041L284.5 25.5L247.804 46.9456C246.674 47.6062 245.292 47.6718 244.104 47.1214L225.5 38.5L208.944 57.2341C207.564 58.7963 205.215 59.0361 203.547 57.7853L150.5 18L137.795 45.2251C137.031 46.8627 135.264 47.7845 133.483 47.4742L82 38.5L73.3495 67.6384C72.8456 69.3358 71.2856 70.5 69.515 70.5H36L61.499 107.546C62.1367 108.472 62.3548 109.624 62.1001 110.72L52.5 152L96.753 152.952C98.1484 152.982 99.4273 153.737 100.127 154.944L133.5 212.5L219.709 165.477C220.834 164.863 222.185 164.826 223.343 165.377L273 189L286.232 165.845C286.726 164.979 287.525 164.33 288.473 164.023L338 148Z" fill="#212121"/>
<g filter="url(#filter0_d_1377_20818)">
<path fill-rule="evenodd" clip-rule="evenodd" d="M214.807 64.2926C217.493 67.6325 222.377 68.1629 225.717 65.4775C229.057 62.792 229.587 57.9075 226.902 54.5676C226.727 54.3502 226.544 54.1456 226.353 53.9536L230.771 47.5397C232.611 48.355 234.817 48.1323 236.481 46.795C238.859 44.8822 239.237 41.4032 237.325 39.0243C236.762 38.3253 236.074 37.8055 235.322 37.4617L238.615 30.2534C240.464 31.0984 242.148 32.376 243.501 34.0583C248.156 39.8481 247.236 48.3156 241.447 52.971C239.816 54.2818 237.975 55.1499 236.066 55.5922C237.516 61.3514 235.614 67.6883 230.683 71.6535C223.932 77.0816 214.059 76.0093 208.631 69.2585L214.807 64.2926Z" fill="#ECFF81"/>
</g>
<rect width="9" height="24.5004" transform="matrix(0.433639 -0.901087 -0.901088 -0.433635 281.468 156.205)" fill="#71F7FF"/>
<rect width="9" height="13" transform="matrix(0.741944 0.670462 0.670459 -0.741946 83.4529 177.642)" fill="#337CC8"/>
<path d="M91.2382 70.6967L77.8145 140.396" stroke="white" stroke-width="12"/>
<path d="M127.361 104.597L130 116" stroke="white" stroke-width="12"/>
<path d="M297.638 115.19L307.001 122.213" stroke="white" stroke-width="12"/>
<path d="M123 122L115 145" stroke="white" stroke-width="12"/>
<path d="M187.5 63.5L207 143.5C204.667 131.333 203.7 106.3 218.5 103.5C233.3 100.7 239.667 122 242.5 136.5" stroke="white" stroke-width="12"/>
<path d="M247 76L266 126" stroke="white" stroke-width="12"/>
<path d="M239 96.5L272 84" stroke="white" stroke-width="12"/>
<path d="M287.5 62.5L298.5 104" stroke="white" stroke-width="12"/>
<g filter="url(#filter1_d_1377_20818)">
<path d="M75 88L132 68" stroke="white" stroke-width="12"/>
</g>
<g filter="url(#filter2_d_1377_20818)">
<path d="M74 104H117" stroke="white" stroke-width="12"/>
</g>
<g filter="url(#filter3_d_1377_20818)">
<path d="M198.5 115C186.667 119.667 151.579 132.2 148.379 121C145.179 109.8 163.045 98.3333 172.379 94C180.379 120.333 187.879 177.5 165.379 174.5C152.879 172.833 144.379 161 165.379 142" stroke="white" stroke-width="12" shape-rendering="crispEdges"/>
</g>
<g opacity="0.5">
<path d="M174.163 278.278C164.866 284.169 156.629 285.887 153.143 285.887C153.918 287.049 153.88 289.517 152.471 291.067C149.372 294.478 145.499 292.489 143.949 291.067C140.592 287.838 133.413 280.913 131.554 279.052C129.23 276.727 127.68 272.851 129.617 270.138C131.167 267.968 134.136 267.942 135.428 268.2C134.007 261.999 133.336 247.426 142.013 238.744C150.689 230.063 158.54 235.127 161.38 238.744C166.803 234.093 176.874 238.744 181.91 247.271C186.946 255.798 185.783 270.913 174.163 278.278Z" fill="#AE7DFF"/>
<path d="M152.74 244.951C153.93 244.326 156.597 242.851 157.74 241.951" stroke="#121212" stroke-width="2" stroke-linecap="round" stroke-linejoin="round"/>
<path d="M139.063 270.951C143.637 274.55 147.84 279.284 150.24 282.311" stroke="#121212" stroke-width="2" stroke-linecap="round" stroke-linejoin="round"/>
</g>
<path d="M88.8968 326.828L68.74 308.51L86.0167 291.951L105.151 311.397C108.398 314.698 113.71 314.729 116.996 311.467L132.74 326.355C120.504 337.968 101.381 338.174 88.8968 326.828Z" fill="#ECFF81"/>
<path d="M35.0001 243.384C35.0001 249.258 36.5798 254.763 39.3374 259.496C41.7097 263.569 42.6342 268.482 41.7159 273.104C41.2514 275.443 41.0079 277.86 41.0079 280.335C41.0079 300.702 57.5074 317.213 77.8605 317.213C84.5311 317.213 90.7878 315.44 96.1853 312.338C102.466 308.729 111.209 308.636 118.048 311.021C120.836 311.993 123.83 312.521 126.948 312.521C141.879 312.521 153.983 300.409 153.983 285.467C153.983 281.769 156.036 278.173 159.058 276.04C164.586 272.138 168.197 265.698 168.197 258.414C168.197 251.597 165.035 245.519 160.098 241.569C156.982 239.076 155.009 234.985 155.009 230.993C155.009 227.738 154.288 224.651 152.997 221.885C152.609 221.053 153.259 219.985 154.14 219.729C157.643 218.71 159.997 214.701 160.83 212.481C158.859 215.467 153.891 215.553 150.116 214.982C148.144 214.683 146.437 213.666 144.739 212.62C140.296 209.886 136.3 205.698 133.821 201.108C130.179 194.368 123.054 189.79 114.86 189.79C111.809 189.79 108.907 190.424 106.277 191.569C100.253 194.19 92.5734 195.477 86.0218 194.983C85.4803 194.942 84.9331 194.922 84.3811 194.922C77.0925 194.922 70.6494 198.544 66.7517 204.088C63.9165 208.121 60.0382 211.718 55.4426 213.502C43.4808 218.145 35.0001 229.773 35.0001 243.384Z" fill="#71F7FF"/>
<mask id="path-22-inside-1_1377_20818" fill="white">
<path fill-rule="evenodd" clip-rule="evenodd" d="M119.939 265.185C120.866 263.613 122.176 262.389 123.825 261.695C124.806 261.283 125.838 261.087 126.885 261.089C127.643 258.949 127.91 256.239 127.516 253.365C127.258 251.484 126.746 249.746 126.057 248.249L116.74 244.302C114.672 246.392 113.606 250.578 114.238 255.186C114.899 260.01 117.228 263.888 119.939 265.185Z"/>
</mask>
<path fill-rule="evenodd" clip-rule="evenodd" d="M119.939 265.185C120.866 263.613 122.176 262.389 123.825 261.695C124.806 261.283 125.838 261.087 126.885 261.089C127.643 258.949 127.91 256.239 127.516 253.365C127.258 251.484 126.746 249.746 126.057 248.249L116.74 244.302C114.672 246.392 113.606 250.578 114.238 255.186C114.899 260.01 117.228 263.888 119.939 265.185Z" fill="white"/>
<path d="M119.939 265.185L119.453 266.202L120.386 266.648L120.911 265.757L119.939 265.185ZM126.885 261.089L126.884 262.216L127.682 262.217L127.948 261.465L126.885 261.089ZM127.516 253.365L126.399 253.518L127.516 253.365ZM126.057 248.249L127.081 247.778L126.899 247.382L126.497 247.211L126.057 248.249ZM116.74 244.302L117.18 243.264L116.476 242.965L115.939 243.509L116.74 244.302ZM114.238 255.186L115.355 255.033L114.238 255.186ZM120.911 265.757C121.729 264.368 122.863 263.323 124.262 262.735L123.388 260.656C121.489 261.455 120.002 262.857 118.968 264.612L120.911 265.757ZM124.262 262.735C125.098 262.383 125.98 262.215 126.884 262.216L126.887 259.961C125.696 259.96 124.515 260.182 123.388 260.656L124.262 262.735ZM127.948 261.465C128.774 259.133 129.048 256.238 128.633 253.212L126.399 253.518C126.772 256.24 126.513 258.765 125.823 260.712L127.948 261.465ZM128.633 253.212C128.36 251.226 127.819 249.381 127.081 247.778L125.033 248.721C125.673 250.111 126.155 251.741 126.399 253.518L128.633 253.212ZM126.497 247.211L117.18 243.264L116.3 245.34L125.617 249.287L126.497 247.211ZM115.939 243.509C113.528 245.945 112.464 250.546 113.121 255.339L115.355 255.033C114.748 250.611 115.816 246.839 117.541 245.095L115.939 243.509ZM113.121 255.339C113.47 257.882 114.26 260.2 115.344 262.073C116.421 263.933 117.829 265.425 119.453 266.202L120.426 264.168C119.339 263.648 118.227 262.552 117.296 260.943C116.372 259.347 115.668 257.313 115.355 255.033L113.121 255.339Z" fill="#121212" mask="url(#path-22-inside-1_1377_20818)"/>
<path fill-rule="evenodd" clip-rule="evenodd" d="M127.516 253.365C127.85 255.8 127.709 258.117 127.198 260.07C125.975 260.223 124.752 260.545 123.561 261.046C123.185 261.204 122.82 261.377 122.466 261.563C121.059 260.021 119.903 257.992 119.209 255.642C119.151 255.446 119.097 255.249 119.047 255.053L122.911 250.26C123.142 249.973 122.865 249.56 122.512 249.664L118.548 250.832C118.591 248.899 119.021 247.116 119.779 245.659L126.106 248.357C126.771 249.829 127.264 251.528 127.516 253.365Z" fill="#121212"/>
<circle cx="126.529" cy="264.184" r="0.82475" transform="rotate(5.90788 126.529 264.184)" fill="#121212"/>
<ellipse cx="122.052" cy="265.378" rx="0.82475" ry="0.824751" transform="rotate(5.9079 122.052 265.378)" fill="#121212"/>
<circle cx="125.122" cy="267.769" r="0.82475" transform="rotate(5.90788 125.122 267.769)" fill="#121212"/>
<path d="M120.5 244L125 246" stroke="#121212" stroke-width="1.1274" stroke-linecap="round" stroke-linejoin="round"/>
<mask id="path-29-inside-2_1377_20818" fill="white">
<path fill-rule="evenodd" clip-rule="evenodd" d="M139.176 256.724C140.103 255.152 141.413 253.928 143.062 253.235C144.043 252.822 145.075 252.627 146.122 252.628C146.88 250.488 147.147 247.778 146.753 244.905C146.142 240.451 144.11 236.804 141.668 235.249L133.682 247.95C134.54 252.198 136.699 255.539 139.176 256.724Z"/>
</mask>
<path fill-rule="evenodd" clip-rule="evenodd" d="M139.176 256.724C140.103 255.152 141.413 253.928 143.062 253.235C144.043 252.822 145.075 252.627 146.122 252.628C146.88 250.488 147.147 247.778 146.753 244.905C146.142 240.451 144.11 236.804 141.668 235.249L133.682 247.95C134.54 252.198 136.699 255.539 139.176 256.724Z" fill="white"/>
<path d="M134.235 247.839C134.156 247.45 134.089 247.053 134.033 246.649L132.916 246.802C132.975 247.229 133.046 247.65 133.13 248.062L134.235 247.839ZM139.176 256.724L138.69 257.741L139.623 258.187L140.148 257.296L139.176 256.724ZM146.122 252.628L146.121 253.755L146.919 253.757L147.185 253.005L146.122 252.628ZM146.753 244.905L145.636 245.058L145.636 245.058L146.753 244.905ZM141.668 235.249L142.274 234.298L141.317 233.69L140.714 234.649L141.668 235.249ZM133.682 247.95L132.728 247.35L132.488 247.732L132.577 248.174L133.682 247.95ZM140.148 257.296C140.966 255.908 142.1 254.863 143.499 254.274L142.625 252.196C140.726 252.994 139.239 254.397 138.205 256.152L140.148 257.296ZM143.499 254.274C144.335 253.923 145.216 253.754 146.121 253.755L146.124 251.501C144.933 251.499 143.752 251.722 142.625 252.196L143.499 254.274ZM147.185 253.005C148.011 250.672 148.285 247.778 147.87 244.752L145.636 245.058C146.009 247.779 145.749 250.305 145.06 252.252L147.185 253.005ZM147.87 244.752C147.233 240.11 145.096 236.095 142.274 234.298L141.063 236.201C143.124 237.513 145.051 240.792 145.636 245.058L147.87 244.752ZM140.714 234.649L132.728 247.35L134.636 248.551L142.623 235.85L140.714 234.649ZM132.577 248.174C133.469 252.591 135.758 256.339 138.69 257.741L139.663 255.707C137.639 254.739 135.611 251.806 134.787 247.727L132.577 248.174Z" fill="#121212" mask="url(#path-29-inside-2_1377_20818)"/>
<path fill-rule="evenodd" clip-rule="evenodd" d="M146.753 244.904C147.087 247.339 146.946 249.656 146.435 251.609C145.212 251.763 143.989 252.084 142.797 252.585C142.422 252.743 142.057 252.916 141.703 253.102C140.296 251.56 139.14 249.531 138.446 247.182C138.388 246.985 138.334 246.788 138.284 246.592L142.148 241.799C142.379 241.512 142.102 241.099 141.749 241.203L137.904 242.336L142.503 235.874C144.564 237.663 146.213 240.969 146.753 244.904Z" fill="#121212"/>
<circle cx="145.766" cy="255.723" r="0.82475" transform="rotate(5.90788 145.766 255.723)" fill="#121212"/>
<ellipse cx="141.289" cy="256.917" rx="0.82475" ry="0.824751" transform="rotate(5.9079 141.289 256.917)" fill="#121212"/>
<circle cx="144.359" cy="259.308" r="0.82475" transform="rotate(5.90788 144.359 259.308)" fill="#121212"/>
<path d="M131.088 268.479C131.329 266.44 132.423 264.595 134.238 263.547C136.053 262.499 138.198 262.474 140.084 263.285" stroke="#121212" stroke-width="1.08889" stroke-linecap="round"/>
<path d="M134.139 268.369C134.454 267.625 135.149 266.864 136.101 266.314C137.054 265.764 138.06 265.543 138.862 265.643" stroke="#121212" stroke-width="1.08889" stroke-linecap="round"/>
<ellipse cx="132.628" cy="258.353" rx="3.10138" ry="2.37116" transform="rotate(-22.8072 132.628 258.353)" fill="#9146FF"/>
<path d="M164.862 316.791C153.99 323.68 144.356 325.689 140.279 325.689C141.185 327.049 141.141 329.935 139.493 331.748C135.869 335.737 131.339 333.41 129.527 331.748C125.601 327.971 117.205 319.873 115.031 317.697C112.313 314.977 110.501 310.444 112.766 307.272C114.578 304.733 118.051 304.703 119.561 305.005C117.9 297.753 117.115 280.71 127.262 270.557C137.409 260.404 146.59 266.326 149.912 270.557C156.255 265.117 168.033 270.557 173.922 280.529C179.811 290.501 178.452 308.178 164.862 316.791Z" fill="#AE7DFF"/>
<path d="M139.808 277.815C141.2 277.084 144.319 275.359 145.655 274.307" stroke="#121212" stroke-width="2" stroke-linecap="round" stroke-linejoin="round"/>
<path d="M123.812 308.222C129.162 312.431 134.077 317.967 136.884 321.508" stroke="#121212" stroke-width="2" stroke-linecap="round" stroke-linejoin="round"/>
<g opacity="0.5">
<path d="M201.317 278.278C210.614 284.169 218.851 285.887 222.337 285.887C221.562 287.049 221.6 289.517 223.009 291.067C226.108 294.478 229.981 292.489 231.531 291.067C234.888 287.838 242.067 280.913 243.926 279.052C246.25 276.727 247.799 272.851 245.863 270.138C244.313 267.968 241.344 267.942 240.052 268.2C241.473 261.999 242.144 247.426 233.467 238.744C224.791 230.063 216.94 235.127 214.1 238.744C208.677 234.093 198.606 238.744 193.57 247.271C188.534 255.798 189.696 270.913 201.317 278.278Z" fill="#71F7FF"/>
<path d="M222.74 244.951C221.55 244.326 218.883 242.851 217.74 241.951" stroke="#121212" stroke-width="2" stroke-linecap="round" stroke-linejoin="round"/>
<path d="M236.417 270.951C231.843 274.55 227.64 279.284 225.24 282.311" stroke="#121212" stroke-width="2" stroke-linecap="round" stroke-linejoin="round"/>
</g>
<path d="M286.583 326.828L306.74 308.51L289.463 291.951L270.329 311.397C267.082 314.698 261.77 314.729 258.484 311.467L242.74 326.355C254.976 337.968 274.099 338.174 286.583 326.828Z" fill="#ECFF81"/>
<path d="M255.087 208.127C243.807 208.766 234.632 216.79 234.632 226.83C234.632 228.581 234.911 230.275 235.431 231.878C236.134 234.041 234.923 236.719 232.748 237.382C222.866 240.391 215.762 248.716 215.762 258.515C215.762 261.528 216.434 264.402 217.652 267.025C218.489 268.827 217.785 271.105 216.029 272.035C208.071 276.248 202.74 283.97 202.74 292.797C202.74 306.137 214.914 316.951 229.93 316.951H296.883C311.9 316.951 324.073 306.137 324.073 292.797C324.073 287.912 322.441 283.365 319.633 279.564C318.487 278.012 318.736 275.737 320.192 274.47C324.85 270.416 327.74 264.766 327.74 258.515C327.74 252.781 325.308 247.552 321.309 243.597C319.838 242.142 319.813 239.613 321.186 238.064C323.925 234.972 325.559 231.07 325.559 226.83C325.559 216.79 316.316 206.912 308.038 200.076C306.923 199.155 305.826 198.218 304.749 197.298C301.243 194.302 297.94 191.481 294.86 189.951C297.784 197.093 287.697 202.363 280.242 204.625C274.102 206.487 265.033 207.563 255.087 208.127Z" fill="#AE7DFF"/>
<mask id="path-46-inside-3_1377_20818" fill="white">
<path fill-rule="evenodd" clip-rule="evenodd" d="M267.446 265.185C266.52 263.613 265.21 262.389 263.561 261.695C262.579 261.283 261.548 261.087 260.5 261.089C259.742 258.949 259.476 256.239 259.87 253.365C260.128 251.484 260.64 249.746 261.329 248.249L270.646 244.302C272.714 246.392 273.78 250.578 273.148 255.186C272.487 260.01 270.157 263.888 267.446 265.185Z"/>
</mask>
<path fill-rule="evenodd" clip-rule="evenodd" d="M267.446 265.185C266.52 263.613 265.21 262.389 263.561 261.695C262.579 261.283 261.548 261.087 260.5 261.089C259.742 258.949 259.476 256.239 259.87 253.365C260.128 251.484 260.64 249.746 261.329 248.249L270.646 244.302C272.714 246.392 273.78 250.578 273.148 255.186C272.487 260.01 270.157 263.888 267.446 265.185Z" fill="white"/>
<path d="M267.446 265.185L267.933 266.202L267 266.648L266.475 265.757L267.446 265.185ZM260.5 261.089L260.502 262.216L259.704 262.217L259.438 261.465L260.5 261.089ZM259.87 253.365L260.987 253.518L259.87 253.365ZM261.329 248.249L260.305 247.778L260.487 247.382L260.889 247.211L261.329 248.249ZM270.646 244.302L270.206 243.264L270.91 242.965L271.447 243.509L270.646 244.302ZM273.148 255.186L272.031 255.033L273.148 255.186ZM266.475 265.757C265.657 264.368 264.523 263.323 263.124 262.735L263.998 260.656C265.897 261.455 267.383 262.857 268.418 264.612L266.475 265.757ZM263.124 262.735C262.288 262.383 261.406 262.215 260.502 262.216L260.499 259.961C261.69 259.96 262.871 260.182 263.998 260.656L263.124 262.735ZM259.438 261.465C258.611 259.133 258.338 256.238 258.753 253.212L260.987 253.518C260.614 256.24 260.873 258.765 261.563 260.712L259.438 261.465ZM258.753 253.212C259.025 251.226 259.567 249.381 260.305 247.778L262.353 248.721C261.713 250.111 261.231 251.741 260.987 253.518L258.753 253.212ZM260.889 247.211L270.206 243.264L271.086 245.34L261.769 249.287L260.889 247.211ZM271.447 243.509C273.858 245.945 274.922 250.546 274.265 255.339L272.031 255.033C272.637 250.611 271.57 246.839 269.844 245.095L271.447 243.509ZM274.265 255.339C273.916 257.882 273.125 260.2 272.042 262.073C270.965 263.933 269.557 265.425 267.933 266.202L266.96 264.168C268.047 263.648 269.159 262.552 270.09 260.943C271.014 259.347 271.718 257.313 272.031 255.033L274.265 255.339Z" fill="#121212" mask="url(#path-46-inside-3_1377_20818)"/>
<path fill-rule="evenodd" clip-rule="evenodd" d="M259.87 253.365C259.536 255.8 259.676 258.117 260.188 260.07C261.411 260.223 262.633 260.545 263.825 261.046C264.201 261.204 264.566 261.377 264.92 261.563C266.326 260.021 267.482 257.992 268.176 255.642C268.235 255.446 268.289 255.249 268.339 255.053L264.475 250.26C264.244 249.973 264.52 249.56 264.874 249.664L268.838 250.832C268.795 248.899 268.365 247.116 267.606 245.659L261.279 248.357C260.615 249.829 260.122 251.528 259.87 253.365Z" fill="#121212"/>
<circle cx="0.82475" cy="0.82475" r="0.82475" transform="matrix(-0.994689 0.102929 0.102929 0.994689 261.592 263.278)" fill="#121212"/>
<ellipse cx="0.82475" cy="0.824751" rx="0.82475" ry="0.824751" transform="matrix(-0.994689 0.10293 0.102929 0.994689 266.069 264.473)" fill="#121212"/>
<circle cx="0.82475" cy="0.82475" r="0.82475" transform="matrix(-0.994689 0.102929 0.102929 0.994689 262.999 266.864)" fill="#121212"/>
<path d="M262.5 246L268 243.5" stroke="#121212" stroke-width="1.1274" stroke-linecap="round" stroke-linejoin="round"/>
<mask id="path-53-inside-4_1377_20818" fill="white">
<path fill-rule="evenodd" clip-rule="evenodd" d="M248.209 256.724C247.283 255.152 245.973 253.928 244.324 253.235C243.342 252.822 242.311 252.627 241.263 252.628C240.505 250.488 240.239 247.778 240.633 244.905C241.244 240.451 243.276 236.804 245.718 235.249L253.704 247.95C252.845 252.198 250.687 255.539 248.209 256.724Z"/>
</mask>
<path fill-rule="evenodd" clip-rule="evenodd" d="M248.209 256.724C247.283 255.152 245.973 253.928 244.324 253.235C243.342 252.822 242.311 252.627 241.263 252.628C240.505 250.488 240.239 247.778 240.633 244.905C241.244 240.451 243.276 236.804 245.718 235.249L253.704 247.95C252.845 252.198 250.687 255.539 248.209 256.724Z" fill="white"/>
<path d="M253.151 247.839C253.23 247.45 253.297 247.053 253.353 246.649L254.47 246.802C254.411 247.229 254.34 247.65 254.256 248.062L253.151 247.839ZM248.209 256.724L248.696 257.741L247.763 258.187L247.238 257.296L248.209 256.724ZM241.263 252.628L241.265 253.755L240.467 253.757L240.201 253.005L241.263 252.628ZM240.633 244.905L241.75 245.058L241.75 245.058L240.633 244.905ZM245.718 235.249L245.112 234.298L246.069 233.69L246.672 234.649L245.718 235.249ZM253.704 247.95L254.658 247.35L254.898 247.732L254.809 248.174L253.704 247.95ZM247.238 257.296C246.42 255.908 245.286 254.863 243.887 254.274L244.761 252.196C246.66 252.994 248.147 254.397 249.181 256.152L247.238 257.296ZM243.887 254.274C243.051 253.923 242.169 253.754 241.265 253.755L241.262 251.501C242.453 251.499 243.634 251.722 244.761 252.196L243.887 254.274ZM240.201 253.005C239.374 250.672 239.101 247.778 239.516 244.752L241.75 245.058C241.377 247.779 241.636 250.305 242.326 252.252L240.201 253.005ZM239.516 244.752C240.153 240.11 242.29 236.095 245.112 234.298L246.323 236.201C244.261 237.513 242.335 240.792 241.75 245.058L239.516 244.752ZM246.672 234.649L254.658 247.35L252.749 248.551L244.763 235.85L246.672 234.649ZM254.809 248.174C253.916 252.591 251.627 256.339 248.696 257.741L247.723 255.707C249.747 254.739 251.774 251.806 252.599 247.727L254.809 248.174Z" fill="#121212" mask="url(#path-53-inside-4_1377_20818)"/>
<path fill-rule="evenodd" clip-rule="evenodd" d="M240.633 244.904C240.299 247.339 240.44 249.656 240.951 251.609C242.174 251.763 243.397 252.084 244.588 252.585C244.964 252.743 245.329 252.916 245.683 253.102C247.089 251.56 248.246 249.531 248.94 247.182C248.998 246.985 249.052 246.788 249.102 246.592L245.238 241.799C245.007 241.512 245.283 241.099 245.637 241.203L249.481 242.336L244.883 235.874C242.822 237.663 241.173 240.969 240.633 244.904Z" fill="#121212"/>
<circle cx="0.82475" cy="0.82475" r="0.82475" transform="matrix(-0.994689 0.102929 0.102929 0.994689 242.355 254.817)" fill="#121212"/>
<ellipse cx="0.82475" cy="0.824751" rx="0.82475" ry="0.824751" transform="matrix(-0.994689 0.10293 0.102929 0.994689 246.832 256.012)" fill="#121212"/>
<circle cx="0.82475" cy="0.82475" r="0.82475" transform="matrix(-0.994689 0.102929 0.102929 0.994689 243.763 258.403)" fill="#121212"/>
<path d="M256.298 268.479C256.057 266.44 254.962 264.595 253.148 263.547C251.333 262.499 249.188 262.474 247.302 263.285" stroke="#121212" stroke-width="1.08889" stroke-linecap="round"/>
<path d="M253.246 268.369C252.932 267.625 252.237 266.864 251.284 266.314C250.332 265.764 249.326 265.543 248.524 265.643" stroke="#121212" stroke-width="1.08889" stroke-linecap="round"/>
<ellipse cx="3.10138" cy="2.37116" rx="3.10138" ry="2.37116" transform="matrix(-0.921815 -0.387631 -0.387631 0.921815 258.536 257.369)" fill="#9146FF"/>
<path d="M210.618 316.791C221.49 323.68 231.124 325.689 235.201 325.689C234.295 327.049 234.339 329.935 235.987 331.748C239.611 335.737 244.141 333.41 245.953 331.748C249.879 327.971 258.275 319.873 260.449 317.697C263.167 314.977 264.979 310.444 262.714 307.272C260.902 304.733 257.429 304.703 255.919 305.005C257.58 297.753 258.365 280.71 248.218 270.557C238.07 260.404 228.89 266.326 225.568 270.557C219.225 265.117 207.447 270.557 201.558 280.529C195.669 290.501 197.028 308.178 210.618 316.791Z" fill="#71F7FF"/>
<path d="M235.672 277.815C234.28 277.084 231.161 275.359 229.825 274.307" stroke="#121212" stroke-width="2" stroke-linecap="round" stroke-linejoin="round"/>
<path d="M251.668 308.222C246.318 312.431 241.403 317.967 238.596 321.508" stroke="#121212" stroke-width="2" stroke-linecap="round" stroke-linejoin="round"/>
</g>
<defs>
<filter id="filter0_d_1377_20818" x="207.732" y="30.2534" width="39.6362" height="46.6596" filterUnits="userSpaceOnUse" color-interpolation-filters="sRGB">
<feFlood flood-opacity="0" result="BackgroundImageFix"/>
<feColorMatrix in="SourceAlpha" type="matrix" values="0 0 0 0 0 0 0 0 0 0 0 0 0 0 0 0 0 0 127 0" result="hardAlpha"/>
<feOffset dy="0.8989"/>
<feGaussianBlur stdDeviation="0.44945"/>
<feComposite in2="hardAlpha" operator="out"/>
<feColorMatrix type="matrix" values="0 0 0 0 0.6125 0 0 0 0 0.594635 0 0 0 0 0.594635 0 0 0 0.25 0"/>
<feBlend mode="normal" in2="BackgroundImageFix" result="effect1_dropShadow_1377_20818"/>
<feBlend mode="normal" in="SourceGraphic" in2="effect1_dropShadow_1377_20818" result="shape"/>
</filter>
<filter id="filter1_d_1377_20818" x="43.0134" y="32.3384" width="120.973" height="91.3232" filterUnits="userSpaceOnUse" color-interpolation-filters="sRGB">
<feFlood flood-opacity="0" result="BackgroundImageFix"/>
<feColorMatrix in="SourceAlpha" type="matrix" values="0 0 0 0 0 0 0 0 0 0 0 0 0 0 0 0 0 0 127 0" result="hardAlpha"/>
<feOffset/>
<feGaussianBlur stdDeviation="15"/>
<feComposite in2="hardAlpha" operator="out"/>
<feColorMatrix type="matrix" values="0 0 0 0 0.0705882 0 0 0 0 0.0705882 0 0 0 0 0.0705882 0 0 0 0.68 0"/>
<feBlend mode="normal" in2="BackgroundImageFix" result="effect1_dropShadow_1377_20818"/>
<feBlend mode="normal" in="SourceGraphic" in2="effect1_dropShadow_1377_20818" result="shape"/>
</filter>
<filter id="filter2_d_1377_20818" x="44" y="68" width="103" height="72" filterUnits="userSpaceOnUse" color-interpolation-filters="sRGB">
<feFlood flood-opacity="0" result="BackgroundImageFix"/>
<feColorMatrix in="SourceAlpha" type="matrix" values="0 0 0 0 0 0 0 0 0 0 0 0 0 0 0 0 0 0 127 0" result="hardAlpha"/>
<feOffset/>
<feGaussianBlur stdDeviation="15"/>
<feComposite in2="hardAlpha" operator="out"/>
<feColorMatrix type="matrix" values="0 0 0 0 0.0705882 0 0 0 0 0.0705882 0 0 0 0 0.0705882 0 0 0 0.68 0"/>
<feBlend mode="normal" in2="BackgroundImageFix" result="effect1_dropShadow_1377_20818"/>
<feBlend mode="normal" in="SourceGraphic" in2="effect1_dropShadow_1377_20818" result="shape"/>
</filter>
<filter id="filter3_d_1377_20818" x="111.999" y="55.6509" width="118.703" height="154.962" filterUnits="userSpaceOnUse" color-interpolation-filters="sRGB">
<feFlood flood-opacity="0" result="BackgroundImageFix"/>
<feColorMatrix in="SourceAlpha" type="matrix" values="0 0 0 0 0 0 0 0 0 0 0 0 0 0 0 0 0 0 127 0" result="hardAlpha"/>
<feOffset/>
<feGaussianBlur stdDeviation="15"/>
<feComposite in2="hardAlpha" operator="out"/>
<feColorMatrix type="matrix" values="0 0 0 0 0.0705882 0 0 0 0 0.0705882 0 0 0 0 0.0705882 0 0 0 0.68 0"/>
<feBlend mode="normal" in2="BackgroundImageFix" result="effect1_dropShadow_1377_20818"/>
<feBlend mode="normal" in="SourceGraphic" in2="effect1_dropShadow_1377_20818" result="shape"/>
</filter>
</defs>
</svg>
