<svg width="300" height="300" viewBox="0 0 300 300" fill="none" xmlns="http://www.w3.org/2000/svg">
<path d="M145.372 206.59C145.372 197.258 137.579 196.72 133.682 197.617C130.885 194.078 128.182 183.783 139.752 183.484C151.322 183.185 159.16 194.698 159.16 204.421L145.372 206.59Z" fill="#ECFF81" stroke="#121212" stroke-width="0.817713" stroke-linecap="round" stroke-linejoin="round"/>
<path d="M144.815 199.521C149.431 200.239 154.082 190.897 155.831 186.136C158.678 183.519 164.223 186.136 164.523 189.875C164.763 192.866 162.775 200.443 161.751 203.858C161.151 207.347 156.925 214.88 144.815 217.093C132.706 219.306 124.433 202.163 121.811 193.315L136.423 186.136C137.297 190.299 140.2 198.803 144.815 199.521Z" fill="#ECFF81"/>
<path d="M246.068 207.325C246.068 196.602 237.113 195.984 232.636 197.015C229.421 192.948 226.316 181.118 239.61 180.775C252.904 180.431 261.911 193.661 261.911 204.832C265.613 207.325 267.852 210.589 267.852 216.775C267.852 221.93 266.044 226.226 261.911 229.579C259.5 231.534 255.75 230.295 255.296 229.579C254.162 230.472 253.128 230.701 251.406 230.436C249.684 230.172 248.134 228.804 247.704 227.429C246.671 228.03 244.604 228.184 243.313 227.429C240.816 225.968 240.248 223.029 241.256 220.614C240.269 219.371 239.61 217.486 239.61 215.058C239.61 211.69 243.915 208.499 246.068 207.325Z" fill="#ECFF81"/>
<path d="M246.068 217.557C246.068 219.008 246.068 220.395 244.722 221.206M250.976 221.079C250.976 222.644 250.53 224.098 249.826 225.263M258.639 222.283C258.395 224.331 257.966 225.951 257.259 227.253" stroke="#121212" stroke-width="1.45061" stroke-linecap="round" stroke-linejoin="round"/>
<path d="M233.781 227.217L233.861 227.601C234.457 230.46 234.718 233.379 234.638 236.299L234.171 253.264C234.108 255.548 233.875 257.823 233.474 260.072L233.235 261.408L229.377 261.157L230.148 226.884L233.781 227.217Z" fill="#337CC8"/>
<path d="M210.239 245.563L197.194 245.119C188.612 244.828 181.886 237.644 182.172 229.074L182.699 213.276L199.324 213.752L199.212 221.397C199.161 224.93 201.93 227.867 205.466 228.027L210.241 228.244L210.239 245.563Z" fill="#ECFF81"/>
<path d="M218.066 247.895L211.173 247.516C210.168 247.461 209.378 246.637 209.367 245.632L209.175 228.187C209.163 227.099 210.063 226.223 211.151 226.262L229.996 226.936L230.076 227.319C230.672 230.179 230.933 233.098 230.853 236.017L230.386 252.983C230.323 255.266 230.09 257.542 229.689 259.79L229.45 261.127L226.122 260.71C222.858 260.302 220.375 257.583 220.268 254.3L220.129 250.002C220.092 248.872 219.196 247.957 218.066 247.895Z" fill="#4D98E6"/>
<path d="M199.389 263.177L198.987 263.095C196.131 262.509 193.353 261.594 190.709 260.366L175.264 253.199C173.194 252.239 171.198 251.126 169.293 249.869L168.151 249.117L169.913 245.681L201.136 259.981L199.389 263.177Z" fill="#337CC8"/>
<path d="M191.849 234.337L200.415 214.902L216.747 221.235L207.781 241.207L191.849 234.337Z" fill="#ECFF81"/>
<path d="M193.674 230.196L197.263 222.053" stroke="#121212" stroke-width="1.45061" stroke-linecap="round" stroke-linejoin="round"/>
<path d="M186.599 240.583L189.684 234.414C190.133 233.516 191.201 233.12 192.127 233.507L208.255 240.252C209.261 240.672 209.71 241.848 209.241 242.832L201.15 259.822L200.748 259.739C197.892 259.154 195.114 258.238 192.47 257.011L177.025 249.844C174.955 248.883 172.959 247.77 171.054 246.514L169.913 245.761L171.621 242.869C173.289 240.044 176.762 238.849 179.815 240.05L183.851 241.637C184.902 242.05 186.094 241.593 186.599 240.583Z" fill="#4D98E6"/>
<path d="M243.203 168.514C243.203 172.773 242.056 176.763 240.054 180.195C238.329 183.153 237.656 186.723 238.324 190.081C238.66 191.774 238.836 193.524 238.836 195.316C238.836 210.088 226.844 222.063 212.05 222.063C207.189 222.063 202.631 220.771 198.701 218.511C194.153 215.895 187.825 215.827 182.873 217.56C180.838 218.273 178.649 218.66 176.37 218.66C165.517 218.66 156.72 209.875 156.72 199.038C156.72 196.356 155.231 193.748 153.038 192.205C149.016 189.375 146.388 184.702 146.388 179.416C146.388 174.469 148.69 170.058 152.281 167.193C154.544 165.389 155.974 162.422 155.974 159.528C155.974 157.167 156.498 154.928 157.436 152.922C157.718 152.319 157.247 151.543 156.608 151.358C154.06 150.62 152.349 147.711 151.744 146.101C153.176 148.267 156.789 148.329 159.534 147.914C160.965 147.697 162.204 146.961 163.437 146.203C166.668 144.218 169.573 141.174 171.381 137.841C174.029 132.958 179.205 129.642 185.157 129.642C187.384 129.642 189.503 130.107 191.421 130.944C195.783 132.847 201.34 133.779 206.084 133.412C206.489 133.38 206.898 133.365 207.31 133.365C212.609 133.365 217.294 135.993 220.127 140.016C222.185 142.939 224.998 145.547 228.332 146.836C237.033 150.201 243.203 158.638 243.203 168.514Z" fill="#71F7FF"/>
<mask id="path-13-inside-1_1772_22407" fill="white">
<path fill-rule="evenodd" clip-rule="evenodd" d="M187.576 184.622C188.333 183.159 188.792 181.238 188.792 179.134C188.792 174.55 186.612 170.834 183.922 170.834C181.232 170.834 179.051 174.55 179.051 179.134C179.051 182.666 180.345 185.682 182.17 186.881C182.992 185.843 184.056 185.093 185.312 184.757C186.06 184.557 186.822 184.518 187.576 184.622Z"/>
</mask>
<path fill-rule="evenodd" clip-rule="evenodd" d="M187.576 184.622C188.333 183.159 188.792 181.238 188.792 179.134C188.792 174.55 186.612 170.834 183.922 170.834C181.232 170.834 179.051 174.55 179.051 179.134C179.051 182.666 180.345 185.682 182.17 186.881C182.992 185.843 184.056 185.093 185.312 184.757C186.06 184.557 186.822 184.518 187.576 184.622Z" fill="white"/>
<path d="M188.792 179.134L189.61 179.135L188.792 179.134ZM187.576 184.622L187.465 185.432L188.037 185.511L188.302 184.998L187.576 184.622ZM179.051 179.134L179.869 179.135L179.051 179.134ZM182.17 186.881L181.721 187.564L182.347 187.975L182.811 187.389L182.17 186.881ZM187.975 179.134C187.975 181.126 187.538 182.915 186.849 184.246L188.302 184.998C189.128 183.404 189.61 181.351 189.61 179.135L187.975 179.134ZM183.922 171.652C184.858 171.652 185.853 172.303 186.66 173.678C187.456 175.034 187.974 176.961 187.975 179.134L189.61 179.135C189.61 176.724 189.038 174.5 188.071 172.852C187.115 171.223 185.676 170.017 183.921 170.017L183.922 171.652ZM179.869 179.135C179.869 176.963 180.387 175.036 181.183 173.679C181.99 172.304 182.987 171.652 183.922 171.652L183.921 170.017C182.167 170.017 180.728 171.223 179.772 172.851C178.805 174.499 178.233 176.722 178.233 179.134L179.869 179.135ZM182.619 186.198C181.887 185.717 181.195 184.821 180.683 183.573C180.175 182.335 179.869 180.805 179.869 179.135L178.233 179.134C178.233 180.995 178.574 182.739 179.169 184.192C179.761 185.635 180.628 186.846 181.721 187.564L182.619 186.198ZM182.811 187.389C183.538 186.471 184.458 185.832 185.524 185.546L185.1 183.967C183.654 184.353 182.446 185.214 181.528 186.373L182.811 187.389ZM185.524 185.546C186.161 185.376 186.813 185.342 187.465 185.432L187.687 183.812C186.83 183.694 185.958 183.738 185.1 183.967L185.524 185.546Z" fill="#121212" mask="url(#path-13-inside-1_1772_22407)"/>
<path fill-rule="evenodd" clip-rule="evenodd" d="M188.792 179.134C188.792 180.917 188.463 182.568 187.901 183.921C187.006 183.911 186.093 184.022 185.186 184.264C184.9 184.341 184.62 184.429 184.346 184.528C183.486 183.281 182.855 181.71 182.588 179.953C182.565 179.806 182.545 179.658 182.528 179.511L185.783 176.449C185.978 176.266 185.819 175.941 185.555 175.982L182.587 176.431C182.952 174.152 184.031 172.27 185.559 171.315C187.443 172.46 188.792 175.529 188.792 179.134Z" fill="#121212"/>
<ellipse cx="0.599132" cy="0.598537" rx="0.599132" ry="0.598537" transform="matrix(0.972039 0.236723 -0.237463 0.970934 186.574 186.088)" fill="#121212"/>
<ellipse cx="0.599132" cy="0.598537" rx="0.599132" ry="0.598537" transform="matrix(0.972039 0.236723 -0.237464 0.970934 183.232 186.506)" fill="#121212"/>
<ellipse cx="0.599132" cy="0.598537" rx="0.599132" ry="0.598537" transform="matrix(0.972039 0.236723 -0.237464 0.970934 185.206 188.526)" fill="#121212"/>
<path d="M182.348 169.937C181.373 170.153 180.555 170.721 179.95 171.611" stroke="#121212" stroke-width="0.817713" stroke-linecap="round" stroke-linejoin="round"/>
<mask id="path-20-inside-2_1772_22407" fill="white">
<path fill-rule="evenodd" clip-rule="evenodd" d="M202.262 180.437C203.02 178.974 203.479 177.053 203.479 174.95C203.479 170.366 201.298 166.65 198.608 166.65C195.918 166.65 193.738 170.366 193.738 174.95C193.738 178.481 195.032 181.497 196.856 182.696C197.678 181.658 198.743 180.908 199.999 180.572C200.746 180.372 201.508 180.333 202.262 180.437Z"/>
</mask>
<path fill-rule="evenodd" clip-rule="evenodd" d="M202.262 180.437C203.02 178.974 203.479 177.053 203.479 174.95C203.479 170.366 201.298 166.65 198.608 166.65C195.918 166.65 193.738 170.366 193.738 174.95C193.738 178.481 195.032 181.497 196.856 182.696C197.678 181.658 198.743 180.908 199.999 180.572C200.746 180.372 201.508 180.333 202.262 180.437Z" fill="white"/>
<path d="M203.479 174.95L204.297 174.95L203.479 174.95ZM202.262 180.437L202.151 181.247L202.724 181.326L202.989 180.813L202.262 180.437ZM193.738 174.95L194.555 174.95L193.738 174.95ZM196.856 182.696L196.407 183.379L197.033 183.791L197.498 183.204L196.856 182.696ZM202.661 174.949C202.661 176.941 202.225 178.73 201.536 180.061L202.989 180.813C203.814 179.219 204.297 177.166 204.297 174.95L202.661 174.949ZM198.609 167.467C199.544 167.467 200.54 168.119 201.347 169.494C202.143 170.849 202.661 172.776 202.661 174.949L204.297 174.95C204.297 172.539 203.725 170.316 202.758 168.667C201.802 167.038 200.362 165.832 198.607 165.832L198.609 167.467ZM194.555 174.95C194.555 172.778 195.074 170.851 195.87 169.495C196.677 168.119 197.673 167.467 198.609 167.467L198.607 165.832C196.853 165.832 195.414 167.038 194.458 168.667C193.491 170.314 192.92 172.537 192.92 174.949L194.555 174.95ZM197.305 182.013C196.573 181.533 195.881 180.636 195.37 179.388C194.862 178.15 194.555 176.62 194.555 174.95L192.92 174.949C192.92 176.811 193.26 178.554 193.856 180.007C194.448 181.45 195.314 182.661 196.407 183.379L197.305 182.013ZM197.498 183.204C198.224 182.286 199.144 181.647 200.211 181.362L199.787 179.782C198.341 180.169 197.132 181.03 196.215 182.189L197.498 183.204ZM200.211 181.362C200.848 181.191 201.5 181.157 202.151 181.247L202.374 179.628C201.517 179.509 200.644 179.553 199.787 179.782L200.211 181.362Z" fill="#121212" mask="url(#path-20-inside-2_1772_22407)"/>
<path fill-rule="evenodd" clip-rule="evenodd" d="M203.479 174.949C203.479 176.732 203.149 178.384 202.588 179.736C201.692 179.726 200.78 179.837 199.872 180.079C199.586 180.156 199.306 180.244 199.033 180.343C198.173 179.097 197.541 177.525 197.274 175.769C197.252 175.621 197.232 175.473 197.215 175.327L200.469 172.264C200.664 172.081 200.506 171.757 200.241 171.797L197.273 172.246C197.638 169.967 198.717 168.085 200.245 167.13C202.13 168.276 203.479 171.344 203.479 174.949Z" fill="#121212"/>
<ellipse cx="0.599132" cy="0.598537" rx="0.599132" ry="0.598537" transform="matrix(0.972039 0.236723 -0.237463 0.970934 201.26 181.903)" fill="#121212"/>
<ellipse cx="0.599132" cy="0.598537" rx="0.599132" ry="0.598537" transform="matrix(0.972039 0.236723 -0.237464 0.970934 197.918 182.321)" fill="#121212"/>
<ellipse cx="0.599132" cy="0.598537" rx="0.599132" ry="0.598537" transform="matrix(0.972039 0.236723 -0.237464 0.970934 199.893 184.341)" fill="#121212"/>
<path d="M197.035 165.752C196.06 165.968 195.242 166.536 194.637 167.427" stroke="#121212" stroke-width="0.817713" stroke-linecap="round" stroke-linejoin="round"/>
<path d="M196.254 184.465C195.701 185.848 194.585 186.935 193.114 187.328C191.643 187.722 190.132 187.337 188.961 186.415" stroke="#121212" stroke-width="0.789777" stroke-linecap="round"/>
<path d="M195.393 188.07C195.032 188.533 194.402 188.935 193.629 189.142C192.857 189.348 192.109 189.314 191.565 189.094" stroke="#121212" stroke-width="0.789777" stroke-linecap="round"/>
<ellipse cx="2.25393" cy="1.72006" rx="2.25393" ry="1.72006" transform="matrix(0.966063 -0.258305 0.259334 0.965788 189.352 182.152)" fill="#9146FF"/>
<path d="M78.087 260.052L77.6831 259.969C74.8311 259.386 72.0566 258.473 69.4151 257.249L53.9819 250.1C51.9131 249.142 49.9183 248.031 48.014 246.778L46.8746 246.028L48.6345 242.601L79.8328 256.865L78.087 260.052Z" fill="#337CC8"/>
<path d="M70.5533 231.287L79.1129 211.902L95.4319 218.219L86.4724 238.139L70.5533 231.287Z" fill="#ECFF81"/>
<path d="M65.3084 237.515L68.3894 231.365C68.8385 230.468 69.905 230.072 70.8303 230.459L86.9417 237.184C87.9485 237.604 88.3985 238.782 87.9287 239.766L79.8469 256.705L79.443 256.623C76.591 256.039 73.8165 255.126 71.175 253.903L55.7418 246.754C53.673 245.795 51.6782 244.685 49.7738 243.431L48.6345 242.681L50.3393 239.8C52.008 236.979 55.4766 235.786 58.527 236.984L62.562 238.568C63.612 238.98 64.8031 238.523 65.3084 237.515Z" fill="#4D98E6"/>
<path d="M100.893 262.388L100.491 262.306C97.6357 261.72 94.8576 260.805 92.2132 259.577L76.7683 252.41C74.6982 251.45 72.7024 250.337 70.7973 249.08L69.6559 248.327L71.4172 244.892L102.64 259.192L100.893 262.388Z" fill="#337CC8"/>
<path d="M93.3535 233.548L101.92 214.112L118.252 220.446L109.285 240.418L93.3535 233.548Z" fill="#ECFF81"/>
<path d="M88.1037 239.794L91.1887 233.625C91.6376 232.727 92.7053 232.331 93.6313 232.718L109.76 239.463C110.765 239.883 111.215 241.059 110.746 242.043L102.655 259.033L102.253 258.95C99.397 258.365 96.6189 257.449 93.9746 256.222L78.5296 249.055C76.4596 248.094 74.4637 246.981 72.5586 245.725L71.4172 244.972L73.1255 242.08C74.7937 239.255 78.2667 238.06 81.3196 239.261L85.3553 240.848C86.4061 241.261 87.5986 240.804 88.1037 239.794Z" fill="#4D98E6"/>
<path d="M84.0039 240.317L81.2071 239.217C78.2189 238.042 74.8196 239.211 73.1867 241.976V241.976L71.4171 244.973L70.8436 245.956" stroke="#121212" stroke-width="0.817713" stroke-linecap="round" stroke-linejoin="round"/>
<path d="M55.8127 182.339C58.568 186.103 68.4764 182.779 73.0862 180.647C76.9542 180.805 79.0207 186.569 76.5833 189.424C74.6334 191.708 67.8582 195.663 64.7144 197.355C61.8178 199.399 53.4919 201.743 43.3609 194.764C33.2298 187.785 39.5281 169.825 43.9437 161.718C42.426 158.681 43.1199 154.779 43.6565 153.207C43.4215 152.117 43.4059 150.741 43.7318 149.028C44.6956 143.963 47.7587 141.732 49.5073 141.679C50.9061 141.637 52.3441 143.206 52.8883 143.995C53.7224 142.427 54.8452 141.133 56.32 141.12C58.9725 141.095 59.701 144.338 59.7336 145.962C59.9279 140.198 61.6093 129.074 66.7808 130.681C71.9523 132.289 68.5047 143.611 66.1345 149.071C70.3293 144.885 77.2734 136.904 80.4513 140.621C83.4201 144.094 74.3605 151.634 69.8315 154.603C70.8023 156.824 71.0969 159.106 69.96 161.031C67.1623 165.768 61.7295 166.953 59.3627 166.953C57.0313 170.513 53.0574 178.574 55.8127 182.339Z" fill="#ECFF81"/>
<path d="M61.747 157.17C59.884 155.21 58.9175 153.415 59.1519 151.813M59.1519 151.813C59.3212 150.655 59.9791 149.612 60.7902 148.74C62.2492 147.171 64.7143 147.465 66.1344 149.07V149.07C66.8726 149.903 67.611 150.832 68.272 151.813M59.1519 151.813C57.8978 154.333 56.007 158.849 52.8377 158.114C50.8772 157.659 50.1759 154.931 50.2467 153.101M46.6459 156.694C48.5712 156.694 49.6646 154.457 50.2467 153.101M50.2467 153.101C50.3096 151.474 50.7664 149.907 50.9908 149.186C51.111 148.799 51.2984 148.097 51.5647 147.263" stroke="#121212" stroke-width="1.45061" stroke-linecap="round" stroke-linejoin="round"/>
<path d="M90.282 146.335C82.4786 146.78 76.1314 152.364 76.1314 159.351C76.1314 160.522 76.3095 161.656 76.6427 162.733C77.1296 164.305 76.2513 166.245 74.6814 166.74C67.9214 168.872 63.0774 174.631 63.0774 181.402C63.0774 183.462 63.5259 185.429 64.3404 187.228C64.9329 188.537 64.4238 190.183 63.1597 190.866C57.7109 193.81 54.0686 199.155 54.0686 205.26C54.0686 214.544 62.4902 222.069 72.8787 222.069H119.196C129.584 222.069 138.006 214.544 138.006 205.26C138.006 201.895 136.899 198.761 134.994 196.133C134.175 195.004 134.356 193.362 135.399 192.436C138.575 189.62 140.542 185.716 140.542 181.402C140.542 177.451 138.893 173.845 136.176 171.102C135.123 170.04 135.106 168.213 136.084 167.082C137.934 164.944 139.034 162.263 139.034 159.351C139.034 152.364 132.64 145.489 126.913 140.732C126.141 140.091 125.383 139.439 124.637 138.799C122.212 136.714 119.927 134.751 117.797 133.686C119.819 138.656 112.841 142.324 107.684 143.898C103.436 145.194 97.1626 145.943 90.282 146.335Z" fill="#AE7DFF"/>
<mask id="path-40-inside-3_1772_22407" fill="white">
<path fill-rule="evenodd" clip-rule="evenodd" d="M94.4902 184.751C95.601 183.533 96.543 181.796 97.0886 179.764C98.2776 175.336 97.135 171.184 94.5367 170.489C91.9383 169.794 88.8681 172.82 87.6791 177.248C86.7632 180.659 87.231 183.907 88.6822 185.536C89.7457 184.746 90.9683 184.296 92.2688 184.296C93.0426 184.296 93.7887 184.455 94.4902 184.751Z"/>
</mask>
<path fill-rule="evenodd" clip-rule="evenodd" d="M94.4902 184.751C95.601 183.533 96.543 181.796 97.0886 179.764C98.2776 175.336 97.135 171.184 94.5367 170.489C91.9383 169.794 88.8681 172.82 87.6791 177.248C86.7632 180.659 87.231 183.907 88.6822 185.536C89.7457 184.746 90.9683 184.296 92.2688 184.296C93.0426 184.296 93.7887 184.455 94.4902 184.751Z" fill="white"/>
<path d="M97.0886 179.764L96.2987 179.552L97.0886 179.764ZM94.4902 184.751L94.1726 185.504L94.7052 185.728L95.0946 185.302L94.4902 184.751ZM87.6791 177.248L86.8892 177.036H86.8892L87.6791 177.248ZM88.6822 185.536L88.0713 186.08L88.5693 186.639L89.1703 186.192L88.6822 185.536ZM96.2987 179.552C95.782 181.476 94.8966 183.092 93.8858 184.2L95.0946 185.302C96.3054 183.974 97.304 182.116 97.8786 179.976L96.2987 179.552ZM94.3253 171.279C95.2287 171.52 96.0214 172.407 96.4442 173.943C96.8611 175.459 96.8622 177.454 96.2987 179.552L97.8786 179.976C98.5041 177.647 98.5283 175.352 98.0216 173.51C97.5207 171.69 96.443 170.152 94.748 169.699L94.3253 171.279ZM88.4691 177.46C89.0326 175.362 90.0332 173.634 91.1537 172.53C92.2902 171.41 93.4216 171.037 94.3253 171.279L94.748 169.699C93.0534 169.246 91.3505 170.039 90.005 171.366C88.6436 172.708 87.5146 174.707 86.8892 177.036L88.4691 177.46ZM89.2931 184.993C88.7111 184.339 88.2749 183.295 88.1043 181.957C87.9352 180.63 88.0361 179.073 88.4691 177.46L86.8892 177.036C86.4063 178.835 86.2831 180.607 86.4816 182.164C86.6788 183.71 87.2021 185.104 88.0713 186.08L89.2931 184.993ZM89.1703 186.192C90.1102 185.494 91.1647 185.114 92.2688 185.114L92.2688 183.479C90.7719 183.479 89.3813 183.998 88.1941 184.88L89.1703 186.192ZM92.2688 185.114C92.9283 185.114 93.5668 185.249 94.1726 185.504L94.8079 183.997C94.0107 183.662 93.1568 183.479 92.2688 183.479L92.2688 185.114Z" fill="#121212" mask="url(#path-40-inside-3_1772_22407)"/>
<path fill-rule="evenodd" clip-rule="evenodd" d="M97.0886 179.764C96.6263 181.486 95.8794 182.996 94.9863 184.157C94.1236 183.917 93.214 183.788 92.2743 183.788C91.9781 183.788 91.6849 183.801 91.3952 183.826C90.8878 182.4 90.6854 180.718 90.8826 178.953C90.8992 178.804 90.9184 178.657 90.9401 178.511L94.8783 176.393C95.1137 176.267 95.0449 175.912 94.7791 175.883L91.7953 175.55C92.739 173.442 94.2694 171.904 95.9932 171.376C97.5166 172.969 98.0238 176.281 97.0886 179.764Z" fill="#121212"/>
<ellipse cx="0.599093" cy="0.598578" rx="0.599093" ry="0.598578" transform="matrix(0.877576 0.479735 -0.481172 0.876462 93.1417 185.908)" fill="#121212"/>
<ellipse cx="0.599093" cy="0.598578" rx="0.599093" ry="0.598578" transform="matrix(0.877576 0.479735 -0.481172 0.876462 89.8055 185.448)" fill="#121212"/>
<ellipse cx="0.599093" cy="0.598578" rx="0.599093" ry="0.598578" transform="matrix(0.877576 0.479735 -0.481172 0.876462 91.1885 187.91)" fill="#121212"/>
<path d="M93.2493 169.216C92.2519 169.173 91.3144 169.51 90.4989 170.214" stroke="#121212" stroke-width="0.817713" stroke-linecap="round" stroke-linejoin="round"/>
<mask id="path-47-inside-4_1772_22407" fill="white">
<path fill-rule="evenodd" clip-rule="evenodd" d="M109.763 184.501C110.874 183.284 111.816 181.547 112.362 179.515C113.551 175.087 112.408 170.934 109.81 170.24C107.211 169.545 104.141 172.571 102.952 176.999C102.036 180.41 102.504 183.658 103.955 185.287C105.019 184.496 106.241 184.047 107.542 184.047C108.316 184.047 109.062 184.206 109.763 184.501Z"/>
</mask>
<path fill-rule="evenodd" clip-rule="evenodd" d="M109.763 184.501C110.874 183.284 111.816 181.547 112.362 179.515C113.551 175.087 112.408 170.934 109.81 170.24C107.211 169.545 104.141 172.571 102.952 176.999C102.036 180.41 102.504 183.658 103.955 185.287C105.019 184.496 106.241 184.047 107.542 184.047C108.316 184.047 109.062 184.206 109.763 184.501Z" fill="white"/>
<path d="M112.362 179.515L111.572 179.303L112.362 179.515ZM109.763 184.501L109.446 185.255L109.978 185.479L110.368 185.052L109.763 184.501ZM102.952 176.999L102.162 176.787H102.162L102.952 176.999ZM103.955 185.287L103.344 185.831L103.842 186.39L104.443 185.943L103.955 185.287ZM111.572 179.303C111.055 181.227 110.17 182.843 109.159 183.95L110.368 185.052C111.579 183.725 112.577 181.867 113.152 179.727L111.572 179.303ZM109.598 171.029C110.502 171.271 111.295 172.157 111.717 173.694C112.134 175.209 112.135 177.204 111.572 179.303L113.152 179.727C113.777 177.397 113.801 175.102 113.295 173.26C112.794 171.44 111.716 169.903 110.021 169.45L109.598 171.029ZM103.742 177.211C104.306 175.112 105.306 173.385 106.427 172.28C107.563 171.16 108.695 170.788 109.598 171.029L110.021 169.45C108.327 168.997 106.624 169.79 105.278 171.116C103.917 172.458 102.788 174.458 102.162 176.787L103.742 177.211ZM104.566 184.743C103.984 184.09 103.548 183.045 103.378 181.708C103.208 180.381 103.309 178.823 103.742 177.211L102.162 176.787C101.679 178.585 101.556 180.357 101.755 181.914C101.952 183.461 102.475 184.855 103.344 185.831L104.566 184.743ZM104.443 185.943C105.383 185.244 106.438 184.864 107.542 184.864L107.542 183.229C106.045 183.229 104.654 183.749 103.467 184.631L104.443 185.943ZM107.542 184.864C108.202 184.864 108.84 184.999 109.446 185.255L110.081 183.748C109.284 183.412 108.43 183.229 107.542 183.229L107.542 184.864Z" fill="#121212" mask="url(#path-47-inside-4_1772_22407)"/>
<path fill-rule="evenodd" clip-rule="evenodd" d="M112.362 179.515C111.899 181.237 111.153 182.746 110.26 183.908C109.397 183.667 108.487 183.538 107.547 183.538C107.251 183.538 106.958 183.551 106.668 183.576C106.161 182.15 105.959 180.469 106.156 178.703C106.172 178.555 106.192 178.407 106.213 178.261L110.151 176.144C110.387 176.017 110.318 175.663 110.052 175.633L107.068 175.301C108.012 173.193 109.543 171.654 111.266 171.126C112.79 172.72 113.297 176.032 112.362 179.515Z" fill="#121212"/>
<ellipse cx="0.599093" cy="0.598578" rx="0.599093" ry="0.598578" transform="matrix(0.877576 0.479735 -0.481172 0.876462 108.415 185.659)" fill="#121212"/>
<ellipse cx="0.599093" cy="0.598578" rx="0.599093" ry="0.598578" transform="matrix(0.877576 0.479735 -0.481172 0.876462 105.079 185.199)" fill="#121212"/>
<ellipse cx="0.599093" cy="0.598578" rx="0.599093" ry="0.598578" transform="matrix(0.877576 0.479735 -0.481172 0.876462 106.462 187.66)" fill="#121212"/>
<path d="M108.523 168.966C107.525 168.923 106.588 169.26 105.772 169.964" stroke="#121212" stroke-width="0.817713" stroke-linecap="round" stroke-linejoin="round"/>
<path d="M102.917 186.836C102.024 188.03 100.665 188.792 99.1417 188.792C97.6187 188.792 96.2591 188.03 95.3666 186.836" stroke="#121212" stroke-width="0.789777" stroke-linecap="round"/>
<path d="M101.151 190.095C100.683 190.449 99.9688 190.675 99.1693 190.675C98.3697 190.675 97.6559 190.449 97.1874 190.095" stroke="#121212" stroke-width="0.789777" stroke-linecap="round"/>
<ellipse cx="99.1084" cy="184.536" rx="2.25425" ry="1.71982" fill="#6AF2BB"/>
<path d="M245.824 123.612L250.045 105.232L249.661 123.612L262.709 125.527L248.894 127.442L244.672 145.822L245.056 127.442L231.241 125.527L245.824 123.612Z" fill="#71F7FF"/>
<path d="M82.6565 117.501L84.2292 110.653L84.0862 117.501L88.947 118.214L83.8003 118.927L82.2276 125.775L82.3706 118.927L77.2239 118.214L82.6565 117.501Z" fill="#71F7FF"/>
<path d="M253.751 251.342L255.903 241.971L255.707 251.342L262.359 252.318L255.316 253.294L253.164 262.665L253.36 253.294L246.317 252.318L253.751 251.342Z" fill="#71F7FF"/>
<path d="M138.819 193.308C140.268 196.385 142.284 199.12 144.815 199.514C146.97 199.849 149.131 197.993 151.002 195.435" stroke="#121212" stroke-width="1.45061" stroke-linecap="round" stroke-linejoin="round"/>
<g clip-path="url(#clip0_1772_22407)">
<rect width="127.67" height="43.1124" rx="21.5562" transform="matrix(0.965119 -0.261811 0.262851 0.964836 90.9586 74.461)" fill="#F1F3F5"/>
<path d="M136.039 75.9715L136.214 92.0509L131.785 93.2525L126.696 84.0195L126.906 94.576L122.477 95.7776L114.577 81.7936L118.493 80.7314L123.632 91.0764L123.329 79.4195L127.351 78.3282L132.897 88.5629L132.102 77.0395L136.039 75.9715ZM142.118 77.4698L142.945 80.5075L147.846 79.1782L148.615 82.0019L143.715 83.3312L144.612 86.6256L150.154 85.1221L150.953 88.0528L141.751 90.5489L137.66 75.5317L146.861 73.0357L147.66 75.9664L142.118 77.4698ZM164.513 87.1311L161.882 85.0651C161.342 85.334 160.801 85.542 160.259 85.689C158.847 86.0721 157.459 86.0963 156.097 85.7615C154.748 85.4228 153.565 84.7635 152.548 83.7837C151.54 82.7858 150.837 81.5523 150.436 80.0834C150.036 78.6145 150.019 77.2025 150.385 75.8473C150.766 74.4882 151.452 73.322 152.443 72.3487C153.448 71.3715 154.657 70.6913 156.069 70.3082C157.481 69.9251 158.862 69.9029 160.21 70.2416C161.573 70.5764 162.749 71.2376 163.738 72.2251C164.741 73.2088 165.443 74.4351 165.843 75.904C166.193 77.1875 166.249 78.4357 166.013 79.6485C165.787 80.8431 165.305 81.9156 164.569 82.8659L168.942 85.9295L164.513 87.1311ZM154.181 79.0676C154.542 80.3939 155.189 81.3596 156.119 81.9648C157.061 82.5518 158.137 82.6808 159.35 82.3519C160.548 82.0268 161.395 81.3682 161.891 80.3761C162.401 79.3801 162.477 78.2261 162.12 76.914C161.759 75.5877 161.107 74.6311 160.166 74.0441C159.235 73.4389 158.171 73.2989 156.972 73.6239C155.76 73.9529 154.897 74.6082 154.383 75.59C153.883 76.5678 153.816 77.727 154.181 79.0676ZM169.268 66.9575L171.715 75.9421C171.96 76.8406 172.37 77.4723 172.944 77.8372C173.518 78.2021 174.233 78.2685 175.089 78.0363C175.945 77.8041 176.535 77.3836 176.86 76.7749C177.184 76.1662 177.224 75.4126 176.979 74.5141L174.532 65.5295L178.191 64.5369L180.633 73.5001C180.998 74.8407 181.021 76.0519 180.703 77.1337C180.385 78.2154 179.805 79.1232 178.963 79.857C178.136 80.5869 177.13 81.1124 175.946 81.4336C174.762 81.7548 173.637 81.815 172.571 81.614C171.516 81.3949 170.591 80.8954 169.796 80.1155C168.997 79.3213 168.416 78.2539 168.05 76.9133L165.609 67.9501L169.268 66.9575ZM184.205 62.9053L188.296 77.9225L184.637 78.9151L180.546 63.8979L184.205 62.9053ZM193.813 73.2098L200.275 71.4568L201.091 74.4517L190.477 77.3308L189.72 74.5499L193.622 63.5671L187.202 65.3085L186.386 62.3137L197 59.4345L197.757 62.2155L193.813 73.2098Z" fill="#121212"/>
</g>
<path d="M111.531 111.126C111.262 110.138 111.844 109.121 112.832 108.853L123.896 105.851C125.468 105.425 126.788 107.088 126.014 108.52L118.116 123.143C117.322 124.614 115.136 124.361 114.697 122.747L111.531 111.126Z" fill="#F1F3F5"/>
<g filter="url(#filter0_d_1772_22407)">
<path fill-rule="evenodd" clip-rule="evenodd" d="M201.252 49.4013C203.194 51.8114 206.729 52.1971 209.149 50.2554C211.569 48.3138 211.951 44.7854 210.009 42.3753C209.882 42.2184 209.75 42.0707 209.612 41.9322L212.801 37.3071C214.133 37.8958 215.731 37.7356 216.936 36.7682C218.661 35.3845 218.932 32.8707 217.549 31.1544C217.142 30.6498 216.644 30.2746 216.1 30.0263L218.476 24.8278C219.814 25.4378 221.032 26.3601 222.01 27.5747C225.379 31.7555 224.712 37.8661 220.527 41.224C219.346 42.1709 218.013 42.7976 216.631 43.1163C217.681 47.2747 216.306 51.8499 212.74 54.7112C207.859 58.6269 200.718 57.8555 196.79 52.981L201.252 49.4013Z" fill="#4D98E6"/>
</g>
<rect width="5.19715" height="14.8945" transform="matrix(-0.716759 -0.697321 0.698849 -0.715269 95.0833 112.784)" fill="#71F7FF"/>
<rect width="5.20201" height="7.139" transform="matrix(-0.975787 -0.218723 0.219616 -0.975586 104.657 123.085)" fill="#ECFF81"/>
<defs>
<filter id="filter0_d_1772_22407" x="196.141" y="24.8278" width="28.6659" height="33.679" filterUnits="userSpaceOnUse" color-interpolation-filters="sRGB">
<feFlood flood-opacity="0" result="BackgroundImageFix"/>
<feColorMatrix in="SourceAlpha" type="matrix" values="0 0 0 0 0 0 0 0 0 0 0 0 0 0 0 0 0 0 127 0" result="hardAlpha"/>
<feOffset dy="0.648933"/>
<feGaussianBlur stdDeviation="0.324467"/>
<feComposite in2="hardAlpha" operator="out"/>
<feColorMatrix type="matrix" values="0 0 0 0 0.6125 0 0 0 0 0.594635 0 0 0 0 0.594635 0 0 0 0.25 0"/>
<feBlend mode="normal" in2="BackgroundImageFix" result="effect1_dropShadow_1772_22407"/>
<feBlend mode="normal" in="SourceGraphic" in2="effect1_dropShadow_1772_22407" result="shape"/>
</filter>
<clipPath id="clip0_1772_22407">
<rect width="127.67" height="43.1124" rx="21.5562" transform="matrix(0.965119 -0.261811 0.262851 0.964836 90.9586 74.461)" fill="white"/>
</clipPath>
</defs>
</svg>
