<svg width="375" height="368" viewBox="0 0 375 368" fill="none" xmlns="http://www.w3.org/2000/svg">
<path d="M94.6072 202.739C51.7537 175.255 55.9918 125.707 63.4675 104.368C44.3533 91.0377 22.6063 68.5353 35.5601 42.5442C53.9945 5.55681 105.919 35.9915 123.648 53.2064C125.671 44.671 143.341 13.2643 197.727 22.9989C241.235 30.7865 256.602 75.9929 258.847 97.6226C314.984 107.029 332.221 140.949 339.28 149.594C346.339 158.238 368.776 224.712 302.739 239.818C249.909 251.903 210.071 212.797 196.756 191.734C188.604 201.419 148.174 237.095 94.6072 202.739Z" fill="#212121"/>
<path d="M178.141 270.834C178.141 257.605 167.094 256.842 161.57 258.114C157.605 253.097 153.773 238.503 170.174 238.079C186.575 237.655 197.686 253.976 197.686 267.758L178.141 270.834Z" fill="#ECFF81" stroke="#121212" stroke-width="1.15916" stroke-linecap="round" stroke-linejoin="round"/>
<path d="M177.352 260.813C183.895 261.831 190.488 248.588 192.967 241.84C197.003 238.13 204.864 241.84 205.289 247.139C205.629 251.379 202.81 262.121 201.358 266.961C200.509 271.908 194.518 282.585 177.352 285.723C160.186 288.86 148.459 264.558 144.741 252.015L165.455 241.84C166.694 247.74 170.808 259.796 177.352 260.813Z" fill="#ECFF81"/>
<path d="M320.884 271.876C320.884 256.676 308.19 255.799 301.843 257.26C297.286 251.495 292.884 234.726 311.73 234.239C330.575 233.752 343.343 252.506 343.343 268.342C348.591 271.876 351.765 276.503 351.765 285.272C351.765 292.579 349.201 298.67 343.343 303.422C339.925 306.194 334.609 304.437 333.965 303.422C332.357 304.688 330.893 305.012 328.452 304.637C326.01 304.263 323.813 302.323 323.203 300.375C321.738 301.227 318.809 301.445 316.978 300.375C313.439 298.304 312.634 294.138 314.063 290.714C312.663 288.952 311.73 286.28 311.73 282.838C311.73 278.063 317.833 273.541 320.884 271.876Z" fill="#ECFF81"/>
<path d="M320.885 286.381C320.885 288.437 320.885 290.403 318.976 291.554M327.842 291.372C327.842 293.591 327.21 295.652 326.212 297.305M338.705 293.08C338.359 295.983 337.75 298.28 336.748 300.125" stroke="#121212" stroke-width="2.05634" stroke-linecap="round" stroke-linejoin="round"/>
<path d="M303.466 300.074L303.58 300.618C304.425 304.672 304.795 308.809 304.681 312.948L304.019 336.998C303.93 340.235 303.6 343.46 303.031 346.648L302.693 348.542L297.223 348.187L298.317 299.602L303.466 300.074Z" fill="#337CC8"/>
<path d="M270.095 326.08L251.602 325.452C239.436 325.039 229.902 314.855 230.307 302.707L231.055 280.313L254.621 280.987L254.463 291.823C254.39 296.832 258.317 300.995 263.328 301.222L270.097 301.529L270.095 326.08Z" fill="#ECFF81"/>
<path d="M281.189 329.386L271.418 328.849C269.993 328.77 268.874 327.602 268.858 326.178L268.586 301.448C268.569 299.906 269.844 298.664 271.387 298.719L298.101 299.674L298.215 300.218C299.06 304.272 299.429 308.41 299.316 312.548L298.654 336.598C298.565 339.835 298.234 343.061 297.666 346.248L297.328 348.143L292.609 347.552C287.982 346.974 284.462 343.119 284.311 338.466L284.113 332.372C284.061 330.771 282.792 329.474 281.189 329.386Z" fill="#4D98E6"/>
<path d="M254.713 351.05L254.144 350.934C250.095 350.104 246.157 348.806 242.409 347.066L220.514 336.906C217.58 335.545 214.751 333.967 212.05 332.186L210.432 331.119L212.929 326.249L257.19 346.52L254.713 351.05Z" fill="#337CC8"/>
<path d="M244.025 310.167L256.168 282.616L279.32 291.594L266.609 319.906L244.025 310.167Z" fill="#ECFF81"/>
<path d="M246.613 304.297L251.701 292.753" stroke="#121212" stroke-width="2.05634" stroke-linecap="round" stroke-linejoin="round"/>
<path d="M236.583 319.021L240.956 310.276C241.593 309.004 243.106 308.442 244.419 308.991L267.282 318.552C268.707 319.148 269.344 320.815 268.68 322.21L257.21 346.294L256.64 346.177C252.592 345.347 248.654 344.049 244.905 342.309L223.011 332.15C220.077 330.788 217.247 329.21 214.547 327.429L212.929 326.362L215.35 322.262C217.715 318.257 222.638 316.564 226.966 318.266L232.687 320.516C234.177 321.101 235.867 320.453 236.583 319.021Z" fill="#4D98E6"/>
<path d="M316.823 216.859C316.823 222.895 315.197 228.552 312.359 233.417C309.913 237.609 308.96 242.67 309.906 247.431C310.383 249.831 310.633 252.312 310.633 254.851C310.633 275.792 293.632 292.768 272.661 292.768C265.771 292.768 259.309 290.936 253.738 287.732C247.291 284.024 238.321 283.927 231.301 286.385C228.416 287.395 225.314 287.944 222.083 287.944C206.698 287.944 194.227 275.49 194.227 260.128C194.227 256.326 192.117 252.629 189.007 250.442C183.306 246.43 179.582 239.806 179.582 232.312C179.582 225.299 182.844 219.047 187.935 214.986C191.143 212.428 193.17 208.222 193.17 204.119C193.17 200.773 193.913 197.6 195.243 194.755C195.642 193.9 194.974 192.801 194.068 192.538C190.457 191.492 188.031 187.368 187.173 185.086C189.203 188.157 194.326 188.244 198.216 187.656C200.245 187.349 202.001 186.305 203.75 185.23C208.329 182.416 212.447 178.102 215.01 173.377C218.765 166.456 226.102 161.755 234.539 161.755C237.696 161.755 240.7 162.413 243.419 163.6C249.601 166.298 257.479 167.619 264.205 167.099C264.778 167.054 265.358 167.032 265.943 167.032C273.454 167.032 280.095 170.758 284.11 176.461C287.028 180.604 291.016 184.301 295.742 186.129C308.077 190.898 316.823 202.858 316.823 216.859Z" fill="#71F7FF"/>
<mask id="path-14-inside-1_2228_17850" fill="white">
<path fill-rule="evenodd" clip-rule="evenodd" d="M237.968 239.693C239.041 237.619 239.692 234.896 239.692 231.914C239.692 225.416 236.601 220.148 232.787 220.148C228.974 220.148 225.883 225.416 225.883 231.914C225.883 236.92 227.718 241.196 230.304 242.895C231.469 241.423 232.978 240.36 234.759 239.884C235.818 239.6 236.898 239.545 237.968 239.693Z"/>
</mask>
<path fill-rule="evenodd" clip-rule="evenodd" d="M237.968 239.693C239.041 237.619 239.692 234.896 239.692 231.914C239.692 225.416 236.601 220.148 232.787 220.148C228.974 220.148 225.883 225.416 225.883 231.914C225.883 236.92 227.718 241.196 230.304 242.895C231.469 241.423 232.978 240.36 234.759 239.884C235.818 239.6 236.898 239.545 237.968 239.693Z" fill="white"/>
<path d="M239.692 231.914L240.852 231.915L239.692 231.914ZM237.968 239.693L237.81 240.841L238.621 240.953L238.998 240.226L237.968 239.693ZM232.787 220.148L232.786 218.989L232.787 220.148ZM225.883 231.914L224.723 231.913L225.883 231.914ZM230.304 242.895L229.667 243.863L230.555 244.446L231.213 243.615L230.304 242.895ZM238.533 231.913C238.533 234.737 237.914 237.273 236.938 239.16L238.998 240.226C240.167 237.966 240.852 235.056 240.852 231.915L238.533 231.913ZM232.789 221.307C234.115 221.307 235.526 222.23 236.67 224.18C237.798 226.102 238.533 228.833 238.533 231.913L240.852 231.915C240.852 228.496 240.041 225.345 238.67 223.008C237.315 220.699 235.274 218.989 232.786 218.989L232.789 221.307ZM227.042 231.915C227.042 228.835 227.777 226.103 228.906 224.181C230.05 222.231 231.462 221.307 232.789 221.307L232.786 218.989C230.3 218.989 228.26 220.699 226.905 223.007C225.534 225.343 224.723 228.494 224.723 231.913L227.042 231.915ZM230.94 241.927C229.903 241.245 228.922 239.975 228.196 238.206C227.477 236.451 227.042 234.282 227.042 231.915L224.723 231.913C224.723 234.552 225.206 237.023 226.051 239.083C226.889 241.128 228.118 242.845 229.667 243.863L230.94 241.927ZM231.213 243.615C232.243 242.314 233.547 241.407 235.059 241.003L234.458 238.764C232.409 239.312 230.695 240.533 229.394 242.175L231.213 243.615ZM235.059 241.003C235.962 240.762 236.886 240.713 237.81 240.841L238.125 238.545C236.91 238.377 235.674 238.439 234.458 238.764L235.059 241.003Z" fill="#121212" mask="url(#path-14-inside-1_2228_17850)"/>
<path fill-rule="evenodd" clip-rule="evenodd" d="M239.692 231.913C239.692 234.44 239.225 236.781 238.429 238.699C237.159 238.685 235.866 238.841 234.579 239.185C234.174 239.294 233.777 239.419 233.39 239.559C232.171 237.792 231.275 235.564 230.896 233.074C230.864 232.865 230.836 232.656 230.813 232.448L235.426 228.107C235.702 227.847 235.477 227.387 235.102 227.444L230.895 228.081C231.412 224.85 232.942 222.183 235.108 220.828C237.78 222.453 239.692 226.802 239.692 231.913Z" fill="#121212"/>
<ellipse cx="0.849309" cy="0.848466" rx="0.849309" ry="0.848466" transform="matrix(0.972039 0.236723 -0.237463 0.970934 236.547 241.771)" fill="#121212"/>
<ellipse cx="0.84931" cy="0.848467" rx="0.84931" ry="0.848467" transform="matrix(0.972039 0.236723 -0.237464 0.970934 231.81 242.363)" fill="#121212"/>
<ellipse cx="0.84931" cy="0.848467" rx="0.84931" ry="0.848467" transform="matrix(0.972039 0.236723 -0.237464 0.970934 234.608 245.227)" fill="#121212"/>
<path d="M230.557 218.875C229.175 219.182 228.015 219.986 227.158 221.249" stroke="#121212" stroke-width="1.15916" stroke-linecap="round" stroke-linejoin="round"/>
<mask id="path-21-inside-2_2228_17850" fill="white">
<path fill-rule="evenodd" clip-rule="evenodd" d="M258.787 233.761C259.86 231.688 260.511 228.964 260.511 225.982C260.511 219.484 257.42 214.216 253.607 214.216C249.793 214.216 246.702 219.484 246.702 225.982C246.702 230.988 248.537 235.264 251.123 236.964C252.289 235.492 253.797 234.428 255.578 233.952C256.637 233.669 257.718 233.614 258.787 233.761Z"/>
</mask>
<path fill-rule="evenodd" clip-rule="evenodd" d="M258.787 233.761C259.86 231.688 260.511 228.964 260.511 225.982C260.511 219.484 257.42 214.216 253.607 214.216C249.793 214.216 246.702 219.484 246.702 225.982C246.702 230.988 248.537 235.264 251.123 236.964C252.289 235.492 253.797 234.428 255.578 233.952C256.637 233.669 257.718 233.614 258.787 233.761Z" fill="white"/>
<path d="M260.511 225.982L259.352 225.981L260.511 225.982ZM258.787 233.761L258.629 234.909L259.44 235.021L259.817 234.295L258.787 233.761ZM253.607 214.216L253.606 213.057L253.606 213.057L253.607 214.216ZM246.702 225.982L247.862 225.983L246.702 225.982ZM251.123 236.964L250.486 237.932L251.374 238.515L252.032 237.683L251.123 236.964ZM259.352 225.981C259.352 228.805 258.733 231.341 257.757 233.228L259.817 234.295C260.987 232.034 261.671 229.124 261.671 225.983L259.352 225.981ZM253.608 215.375C254.934 215.375 256.345 216.299 257.489 218.248C258.617 220.17 259.352 222.901 259.352 225.981L261.671 225.983C261.671 222.565 260.86 219.413 259.489 217.077C258.134 214.768 256.093 213.057 253.606 213.057L253.608 215.375ZM247.862 225.983C247.862 222.903 248.597 220.172 249.725 218.249C250.869 216.299 252.281 215.375 253.608 215.375L253.606 213.057C251.119 213.057 249.079 214.767 247.724 217.075C246.353 219.411 245.543 222.563 245.543 225.981L247.862 225.983ZM251.759 235.995C250.722 235.314 249.741 234.043 249.016 232.274C248.296 230.519 247.862 228.35 247.862 225.983L245.543 225.981C245.543 228.62 246.025 231.092 246.87 233.151C247.709 235.197 248.938 236.914 250.486 237.932L251.759 235.995ZM252.032 237.683C253.062 236.383 254.367 235.476 255.879 235.072L255.277 232.832C253.228 233.381 251.515 234.601 250.214 236.244L252.032 237.683ZM255.879 235.072C256.782 234.83 257.706 234.782 258.629 234.909L258.945 232.613C257.73 232.446 256.493 232.507 255.277 232.832L255.879 235.072Z" fill="#121212" mask="url(#path-21-inside-2_2228_17850)"/>
<path fill-rule="evenodd" clip-rule="evenodd" d="M260.511 225.982C260.511 228.509 260.044 230.85 259.248 232.767C257.978 232.753 256.685 232.91 255.399 233.254C254.993 233.362 254.596 233.487 254.209 233.627C252.99 231.861 252.095 229.632 251.715 227.143C251.683 226.933 251.656 226.724 251.632 226.516L256.245 222.175C256.521 221.916 256.296 221.455 255.922 221.512L251.714 222.149C252.231 218.918 253.761 216.251 255.927 214.897C258.599 216.521 260.511 220.871 260.511 225.982Z" fill="#121212"/>
<ellipse cx="0.849309" cy="0.848466" rx="0.849309" ry="0.848466" transform="matrix(0.972039 0.236723 -0.237463 0.970934 257.366 235.839)" fill="#121212"/>
<ellipse cx="0.84931" cy="0.848467" rx="0.84931" ry="0.848467" transform="matrix(0.972039 0.236723 -0.237464 0.970934 252.629 236.432)" fill="#121212"/>
<ellipse cx="0.84931" cy="0.848467" rx="0.84931" ry="0.848467" transform="matrix(0.972039 0.236723 -0.237464 0.970934 255.427 239.295)" fill="#121212"/>
<path d="M251.376 212.944C249.994 213.25 248.835 214.055 247.977 215.317" stroke="#121212" stroke-width="1.15916" stroke-linecap="round" stroke-linejoin="round"/>
<path d="M250.269 239.47C249.485 241.431 247.904 242.972 245.819 243.53C243.733 244.087 241.591 243.541 239.93 242.234" stroke="#121212" stroke-width="1.11956" stroke-linecap="round"/>
<path d="M249.049 244.581C248.538 245.236 247.643 245.807 246.549 246.1C245.454 246.392 244.393 246.344 243.622 246.032" stroke="#121212" stroke-width="1.11956" stroke-linecap="round"/>
<ellipse cx="3.1951" cy="2.4383" rx="3.1951" ry="2.4383" transform="matrix(0.966063 -0.258305 0.259334 0.965788 240.485 236.192)" fill="#9146FF"/>
<path d="M82.7596 346.619L82.1871 346.502C78.1442 345.675 74.2111 344.381 70.4667 342.646L48.589 332.512C45.6563 331.154 42.8286 329.58 40.1291 327.803L38.514 326.739L41.0088 321.882L85.2344 342.101L82.7596 346.619Z" fill="#337CC8"/>
<path d="M72.0801 305.843L84.2138 278.363L107.347 287.318L94.6465 315.557L72.0801 305.843Z" fill="#ECFF81"/>
<path d="M64.6451 314.672L69.0127 305.954C69.6493 304.683 71.1611 304.122 72.4728 304.669L95.3118 314.203C96.739 314.799 97.3769 316.468 96.711 317.864L85.2544 341.876L84.6818 341.758C80.639 340.931 76.7059 339.637 72.9615 337.903L51.0838 327.769C48.1511 326.41 45.3234 324.836 42.6239 323.059L41.0088 321.995L43.4255 317.911C45.7909 313.913 50.7079 312.222 55.0321 313.919L60.7519 316.165C62.2404 316.749 63.9289 316.102 64.6451 314.672Z" fill="#4D98E6"/>
<path d="M115.089 349.932L114.519 349.815C110.471 348.985 106.533 347.687 102.784 345.948L80.8902 335.788C77.9557 334.426 75.1265 332.848 72.4259 331.067L70.8079 330L73.3047 325.13L117.566 345.402L115.089 349.932Z" fill="#337CC8"/>
<path d="M104.401 309.048L116.544 281.498L139.696 290.476L126.985 318.788L104.401 309.048Z" fill="#ECFF81"/>
<path d="M96.959 317.903L101.332 309.158C101.969 307.885 103.482 307.323 104.795 307.872L127.658 317.433C129.083 318.029 129.721 319.696 129.056 321.091L117.586 345.175L117.016 345.058C112.968 344.228 109.03 342.93 105.281 341.191L83.3872 331.031C80.4527 329.669 77.6235 328.091 74.9229 326.31L73.3049 325.243L75.7265 321.143C78.0913 317.139 83.0144 315.445 87.3422 317.147L93.0631 319.397C94.5527 319.983 96.2431 319.334 96.959 317.903Z" fill="#4D98E6"/>
<path d="M91.1475 318.644L87.1829 317.085C82.9469 315.419 78.1281 317.077 75.8134 320.996V320.996L73.3048 325.244L72.4919 326.637" stroke="#121212" stroke-width="1.15916" stroke-linecap="round" stroke-linejoin="round"/>
<path d="M51.1844 236.456C55.0902 241.793 69.1361 237.081 75.6708 234.058C81.154 234.283 84.0833 242.453 80.6282 246.5C77.864 249.738 68.2598 255.344 63.8031 257.743C59.697 260.641 47.8945 263.964 33.5331 254.07C19.1717 244.176 28.1 218.718 34.3593 207.225C32.2079 202.92 33.1915 197.388 33.9522 195.161C33.6191 193.615 33.597 191.664 34.0589 189.237C35.4252 182.056 39.7674 178.893 42.2461 178.818C44.229 178.758 46.2675 180.982 47.0389 182.102C48.2213 179.879 49.813 178.045 51.9036 178.026C55.6637 177.991 56.6963 182.587 56.7426 184.889C57.018 176.72 59.4015 160.95 66.7324 163.228C74.0633 165.507 69.1762 181.557 65.8162 189.297C71.7626 183.363 81.6064 172.05 86.1113 177.319C90.3198 182.242 77.4772 192.931 71.0571 197.138C72.4332 200.288 72.8508 203.522 71.2392 206.251C67.2733 212.966 59.5718 214.645 56.2169 214.645C52.9119 219.692 47.2786 231.12 51.1844 236.456Z" fill="#ECFF81"/>
<path d="M59.5968 200.778C56.9558 198 55.5858 195.455 55.918 193.184M55.918 193.184C56.1581 191.543 57.0906 190.065 58.2404 188.828C60.3086 186.604 63.8031 187.021 65.8161 189.295V189.295C66.8626 190.477 67.9094 191.794 68.8463 193.184M55.918 193.184C54.1403 196.757 51.46 203.158 46.9672 202.116C44.1881 201.472 43.194 197.604 43.2943 195.01M38.19 200.103C40.9192 200.103 42.4692 196.932 43.2943 195.01M43.2943 195.01C43.3835 192.704 44.031 190.483 44.3491 189.46C44.5195 188.912 44.7852 187.917 45.1627 186.734" stroke="#121212" stroke-width="2.05634" stroke-linecap="round" stroke-linejoin="round"/>
<path d="M100.047 185.419C88.9852 186.049 79.9876 193.965 79.9876 203.87C79.9876 205.53 80.2401 207.138 80.7125 208.664C81.4027 210.893 80.1576 213.642 77.9322 214.344C68.3494 217.366 61.4827 225.531 61.4827 235.128C61.4827 238.049 62.1185 240.836 63.2731 243.387C64.1131 245.242 63.3913 247.575 61.5995 248.544C53.8755 252.717 48.7122 260.294 48.7122 268.949C48.7122 282.109 60.6503 292.777 75.3767 292.777H141.035C155.761 292.777 167.699 282.109 167.699 268.949C167.699 264.179 166.131 259.736 163.429 256.01C162.269 254.41 162.525 252.082 164.004 250.77C168.506 246.778 171.295 241.244 171.295 235.128C171.295 229.528 168.956 224.415 165.105 220.528C163.613 219.022 163.588 216.432 164.975 214.829C167.596 211.798 169.156 207.997 169.156 203.87C169.156 193.965 160.092 184.22 151.973 177.476C150.88 176.568 149.805 175.644 148.748 174.736C145.31 171.78 142.071 168.997 139.051 167.487C141.918 174.533 132.026 179.733 124.715 181.964C118.694 183.801 109.801 184.863 100.047 185.419Z" fill="#AE7DFF"/>
<mask id="path-41-inside-3_2228_17850" fill="white">
<path fill-rule="evenodd" clip-rule="evenodd" d="M106.013 239.875C107.587 238.149 108.922 235.687 109.696 232.806C111.381 226.529 109.762 220.643 106.078 219.658C102.395 218.673 98.0428 222.963 96.3574 229.239C95.059 234.075 95.7221 238.679 97.7793 240.989C99.2869 239.868 101.02 239.23 102.864 239.23C103.96 239.23 105.018 239.456 106.013 239.875Z"/>
</mask>
<path fill-rule="evenodd" clip-rule="evenodd" d="M106.013 239.875C107.587 238.149 108.922 235.687 109.696 232.806C111.381 226.529 109.762 220.643 106.078 219.658C102.395 218.673 98.0428 222.963 96.3574 229.239C95.059 234.075 95.7221 238.679 97.7793 240.989C99.2869 239.868 101.02 239.23 102.864 239.23C103.96 239.23 105.018 239.456 106.013 239.875Z" fill="white"/>
<path d="M109.696 232.806L110.816 233.106L109.696 232.806ZM106.013 239.875L105.562 240.943L106.317 241.261L106.869 240.656L106.013 239.875ZM106.078 219.658L105.779 220.777H105.779L106.078 219.658ZM96.3574 229.239L97.4772 229.54L96.3574 229.239ZM97.7793 240.989L96.9133 241.759L97.6192 242.552L98.4712 241.918L97.7793 240.989ZM108.576 232.506C107.844 235.233 106.589 237.523 105.156 239.094L106.869 240.656C108.586 238.774 110.001 236.14 110.816 233.106L108.576 232.506ZM105.779 220.777C107.059 221.12 108.183 222.376 108.783 224.555C109.373 226.703 109.375 229.531 108.576 232.506L110.816 233.106C111.702 229.804 111.737 226.551 111.018 223.94C110.309 221.36 108.781 219.181 106.378 218.538L105.779 220.777ZM97.4772 229.54C98.276 226.565 99.6945 224.116 101.283 222.551C102.894 220.963 104.498 220.435 105.779 220.777L106.378 218.538C103.976 217.896 101.562 219.021 99.6545 220.9C97.7245 222.803 96.1242 225.637 95.2376 228.939L97.4772 229.54ZM98.6453 240.218C97.8203 239.292 97.2019 237.811 96.9602 235.915C96.7203 234.034 96.8634 231.826 97.4772 229.54L95.2376 228.939C94.553 231.488 94.3784 234 94.6598 236.208C94.9393 238.4 95.6811 240.376 96.9133 241.759L98.6453 240.218ZM98.4712 241.918C99.8036 240.928 101.298 240.389 102.864 240.389L102.864 238.071C100.742 238.071 98.7703 238.808 97.0874 240.059L98.4712 241.918ZM102.864 240.389C103.798 240.389 104.703 240.581 105.562 240.943L106.463 238.807C105.333 238.331 104.122 238.071 102.864 238.071L102.864 240.389Z" fill="#121212" mask="url(#path-41-inside-3_2228_17850)"/>
<path fill-rule="evenodd" clip-rule="evenodd" d="M109.696 232.806C109.041 235.247 107.982 237.387 106.716 239.034C105.493 238.692 104.204 238.51 102.871 238.51C102.451 238.51 102.036 238.528 101.625 238.563C100.906 236.542 100.619 234.158 100.898 231.655C100.922 231.445 100.949 231.236 100.98 231.029L106.563 228.027C106.896 227.848 106.799 227.345 106.422 227.303L102.192 226.832C103.53 223.844 105.7 221.663 108.143 220.915C110.303 223.173 111.022 227.869 109.696 232.806Z" fill="#121212"/>
<ellipse cx="0.849255" cy="0.848525" rx="0.849255" ry="0.848525" transform="matrix(0.877576 0.479735 -0.481172 0.876462 104.101 241.516)" fill="#121212"/>
<ellipse cx="0.849255" cy="0.848525" rx="0.849255" ry="0.848525" transform="matrix(0.877576 0.479735 -0.481172 0.876462 99.3717 240.864)" fill="#121212"/>
<ellipse cx="0.849255" cy="0.848525" rx="0.849255" ry="0.848525" transform="matrix(0.877576 0.479735 -0.481172 0.876462 101.332 244.353)" fill="#121212"/>
<path d="M104.254 217.853C102.84 217.792 101.511 218.27 100.355 219.268" stroke="#121212" stroke-width="1.15916" stroke-linecap="round" stroke-linejoin="round"/>
<mask id="path-48-inside-4_2228_17850" fill="white">
<path fill-rule="evenodd" clip-rule="evenodd" d="M127.663 239.522C129.238 237.796 130.573 235.334 131.347 232.453C133.032 226.176 131.413 220.29 127.729 219.305C124.046 218.32 119.694 222.61 118.008 228.886C116.71 233.722 117.373 238.326 119.43 240.636C120.938 239.515 122.671 238.877 124.515 238.877C125.611 238.877 126.669 239.103 127.663 239.522Z"/>
</mask>
<path fill-rule="evenodd" clip-rule="evenodd" d="M127.663 239.522C129.238 237.796 130.573 235.334 131.347 232.453C133.032 226.176 131.413 220.29 127.729 219.305C124.046 218.32 119.694 222.61 118.008 228.886C116.71 233.722 117.373 238.326 119.43 240.636C120.938 239.515 122.671 238.877 124.515 238.877C125.611 238.877 126.669 239.103 127.663 239.522Z" fill="white"/>
<path d="M131.347 232.453L132.467 232.753L131.347 232.453ZM127.663 239.522L127.213 240.59L127.968 240.908L128.52 240.303L127.663 239.522ZM127.729 219.305L127.43 220.424H127.43L127.729 219.305ZM118.008 228.886L119.128 229.187L118.008 228.886ZM119.43 240.636L118.564 241.406L119.27 242.199L120.122 241.565L119.43 240.636ZM130.227 232.152C129.495 234.88 128.24 237.17 126.807 238.741L128.52 240.303C130.237 238.421 131.652 235.787 132.467 232.753L130.227 232.152ZM127.43 220.424C128.71 220.767 129.834 222.023 130.433 224.202C131.024 226.349 131.026 229.178 130.227 232.153L132.467 232.753C133.353 229.451 133.388 226.198 132.669 223.587C131.959 221.007 130.432 218.828 128.029 218.185L127.43 220.424ZM119.128 229.187C119.927 226.212 121.345 223.763 122.934 222.198C124.545 220.61 126.149 220.082 127.43 220.424L128.029 218.185C125.627 217.543 123.213 218.667 121.305 220.547C119.375 222.45 117.775 225.284 116.888 228.586L119.128 229.187ZM120.296 239.865C119.471 238.939 118.853 237.458 118.611 235.562C118.371 233.681 118.514 231.473 119.128 229.187L116.888 228.586C116.204 231.135 116.029 233.647 116.311 235.855C116.59 238.047 117.332 240.023 118.564 241.406L120.296 239.865ZM120.122 241.565C121.455 240.575 122.949 240.036 124.515 240.036L124.515 237.718C122.393 237.718 120.421 238.455 118.738 239.706L120.122 241.565ZM124.515 240.036C125.449 240.036 126.354 240.228 127.213 240.59L128.114 238.454C126.984 237.978 125.773 237.718 124.515 237.718L124.515 240.036Z" fill="#121212" mask="url(#path-48-inside-4_2228_17850)"/>
<path fill-rule="evenodd" clip-rule="evenodd" d="M131.347 232.453C130.691 234.894 129.633 237.034 128.367 238.681C127.144 238.339 125.854 238.157 124.522 238.157C124.102 238.157 123.687 238.175 123.276 238.21C122.557 236.189 122.27 233.805 122.549 231.302C122.573 231.092 122.6 230.883 122.631 230.676L128.213 227.674C128.547 227.495 128.45 226.992 128.073 226.95L123.843 226.479C125.181 223.491 127.35 221.31 129.794 220.562C131.954 222.82 132.673 227.516 131.347 232.453Z" fill="#121212"/>
<ellipse cx="0.849255" cy="0.848525" rx="0.849255" ry="0.848525" transform="matrix(0.877576 0.479735 -0.481172 0.876462 125.752 241.163)" fill="#121212"/>
<ellipse cx="0.849255" cy="0.848525" rx="0.849255" ry="0.848525" transform="matrix(0.877576 0.479735 -0.481172 0.876462 121.023 240.511)" fill="#121212"/>
<ellipse cx="0.849255" cy="0.848525" rx="0.849255" ry="0.848525" transform="matrix(0.877576 0.479735 -0.481172 0.876462 122.983 244)" fill="#121212"/>
<path d="M125.904 217.5C124.491 217.439 123.162 217.917 122.006 218.915" stroke="#121212" stroke-width="1.15916" stroke-linecap="round" stroke-linejoin="round"/>
<path d="M117.958 242.831C116.693 244.523 114.766 245.603 112.607 245.603C110.448 245.603 108.52 244.523 107.255 242.831" stroke="#121212" stroke-width="1.11956" stroke-linecap="round"/>
<path d="M115.455 247.451C114.791 247.952 113.779 248.272 112.646 248.272C111.513 248.272 110.501 247.952 109.837 247.451" stroke="#121212" stroke-width="1.11956" stroke-linecap="round"/>
<ellipse cx="112.559" cy="239.57" rx="3.19556" ry="2.43795" fill="#6AF2BB"/>
<path d="M320.538 153.208L326.522 127.152L325.978 153.208L344.474 155.922L324.89 158.636L318.906 184.692L319.45 158.636L299.867 155.922L320.538 153.208Z" fill="#71F7FF"/>
<path d="M89.2375 144.544L91.4668 134.837L91.2642 144.544L98.1547 145.555L90.8588 146.566L88.6296 156.273L88.8322 146.566L81.5364 145.555L89.2375 144.544Z" fill="#71F7FF"/>
<path d="M331.775 334.273L334.826 320.989L334.548 334.273L343.977 335.656L333.994 337.04L330.943 350.323L331.22 337.04L321.237 335.656L331.775 334.273Z" fill="#71F7FF"/>
<path d="M168.851 252.005C170.905 256.367 173.763 260.245 177.352 260.803C180.405 261.278 183.47 258.647 186.122 255.02" stroke="#121212" stroke-width="2.05634" stroke-linecap="round" stroke-linejoin="round"/>
<g clip-path="url(#clip0_2228_17850)">
<rect width="180.981" height="61.1148" rx="30.5574" transform="matrix(0.965119 -0.261811 0.262851 0.964836 101.006 83.5317)" fill="#F1F3F5"/>
<path d="M137.869 93.9424L141.817 108.438C142.429 110.682 142.263 112.583 141.319 114.142C140.396 115.695 138.862 116.762 136.719 117.343C134.474 117.952 132.501 117.804 130.799 116.898C129.097 115.992 127.927 114.366 127.288 112.021L132.445 110.622C132.687 111.512 133.053 112.139 133.544 112.506C134.029 112.852 134.616 112.931 135.303 112.745C135.93 112.575 136.36 112.241 136.594 111.743C136.828 111.246 136.84 110.613 136.63 109.845L132.682 95.3495L137.869 93.9424ZM155.102 89.2675L159.051 103.763C159.662 106.007 159.496 107.908 158.552 109.467C157.629 111.02 156.096 112.087 153.952 112.668C151.707 113.277 149.734 113.129 148.032 112.223C146.33 111.317 145.16 109.691 144.521 107.346L149.678 105.947C149.92 106.837 150.287 107.464 150.777 107.831C151.262 108.177 151.849 108.256 152.536 108.07C153.163 107.9 153.594 107.566 153.827 107.069C154.061 106.571 154.073 105.938 153.864 105.17L149.915 90.6746L155.102 89.2675ZM164.175 86.8062L169.975 108.094L164.788 109.501L158.988 88.2133L164.175 86.8062ZM192.48 101.989L187.293 103.396L175.04 92.6189L178.617 105.749L173.43 107.157L167.631 85.8687L172.818 84.4616L185.087 95.2994L181.493 82.1082L186.68 80.7011L192.48 101.989ZM192.149 90.6157C191.576 88.5132 191.521 86.5197 191.985 84.6354C192.444 82.7308 193.358 81.1042 194.728 79.7556C196.112 78.3813 197.836 77.4143 199.899 76.8548C202.427 76.1691 204.772 76.2492 206.935 77.0953C209.099 77.9413 210.798 79.4344 212.032 81.5745L206.329 83.1215C205.662 82.3472 204.871 81.8345 203.956 81.5834C203.061 81.3269 202.118 81.3331 201.127 81.6019C199.529 82.0353 198.387 82.9423 197.699 84.323C197.011 85.7037 196.92 87.324 197.427 89.1839C197.933 91.0438 198.834 92.3953 200.127 93.2384C201.421 94.0815 202.867 94.2864 204.465 93.853C205.455 93.5842 206.272 93.1131 206.914 92.4396C207.576 91.7607 207.998 90.9189 208.18 89.9142L213.883 88.3672C213.904 90.8364 213.196 92.9823 211.76 94.8048C210.318 96.6071 208.333 97.8511 205.806 98.5369C203.743 99.0964 201.769 99.1435 199.883 98.6781C198.012 98.187 196.398 97.2461 195.042 95.8555C193.686 94.4648 192.721 92.7182 192.149 90.6157ZM231.382 68.5748L237.181 89.8627L231.994 91.2698L229.607 82.506L221.538 84.6948L223.926 93.4586L218.739 94.8657L212.939 73.5778L218.126 72.1707L220.398 80.51L228.467 78.3212L226.195 69.9819L231.382 68.5748ZM240.01 66.2342L245.81 87.5221L240.623 88.9292L234.823 67.6413L240.01 66.2342ZM268.315 81.4171L263.128 82.8242L250.875 72.047L254.452 85.1776L249.265 86.5846L243.466 65.2968L248.653 63.8897L260.922 74.7275L257.328 61.5363L262.515 60.1292L268.315 81.4171Z" fill="#121212"/>
</g>
<path d="M130.168 135.507C129.787 134.107 130.613 132.665 132.013 132.285L147.696 128.03C149.925 127.426 151.796 129.783 150.699 131.814L139.503 152.542C138.377 154.628 135.279 154.269 134.656 151.981L130.168 135.507Z" fill="#F1F3F5"/>
<g filter="url(#filter0_d_2228_17850)">
<path fill-rule="evenodd" clip-rule="evenodd" d="M261.847 48.2045C264.051 50.9393 268.063 51.3778 270.811 49.1735C273.558 46.9691 273.99 42.9642 271.787 40.2294C271.643 40.0508 271.492 39.883 271.336 39.7257L275.857 33.1694C277.319 33.8158 279.071 33.6386 280.392 32.5784C282.284 31.0605 282.58 28.304 281.065 26.4228C280.618 25.8684 280.073 25.4579 279.477 25.1863L282.845 17.817C284.565 18.6013 286.131 19.7874 287.389 21.3484C291.72 26.7231 290.861 34.5784 285.482 38.8947C284.113 39.9929 282.584 40.756 280.993 41.1956C282.097 46.3667 280.308 51.9531 275.9 55.4898C269.665 60.4925 260.541 59.5073 255.523 53.2789L261.847 48.2045Z" fill="#4D98E6"/>
</g>
<rect width="7.3673" height="21.1139" transform="matrix(-0.716759 -0.697321 0.698849 -0.715269 106.853 137.857)" fill="#71F7FF"/>
<rect width="7.3742" height="10.12" transform="matrix(-0.975787 -0.218723 0.219616 -0.975586 120.424 152.46)" fill="#ECFF81"/>
<defs>
<filter id="filter0_d_2228_17850" x="254.603" y="17.8169" width="36.4675" height="42.7041" filterUnits="userSpaceOnUse" color-interpolation-filters="sRGB">
<feFlood flood-opacity="0" result="BackgroundImageFix"/>
<feColorMatrix in="SourceAlpha" type="matrix" values="0 0 0 0 0 0 0 0 0 0 0 0 0 0 0 0 0 0 127 0" result="hardAlpha"/>
<feOffset dy="0.919906"/>
<feGaussianBlur stdDeviation="0.459953"/>
<feComposite in2="hardAlpha" operator="out"/>
<feColorMatrix type="matrix" values="0 0 0 0 0.6125 0 0 0 0 0.594635 0 0 0 0 0.594635 0 0 0 0.25 0"/>
<feBlend mode="normal" in2="BackgroundImageFix" result="effect1_dropShadow_2228_17850"/>
<feBlend mode="normal" in="SourceGraphic" in2="effect1_dropShadow_2228_17850" result="shape"/>
</filter>
<clipPath id="clip0_2228_17850">
<rect width="180.981" height="61.1148" rx="30.5574" transform="matrix(0.965119 -0.261811 0.262851 0.964836 101.006 83.5317)" fill="white"/>
</clipPath>
</defs>
</svg>
