<svg width="374" height="368" viewBox="0 0 374 368" fill="none" xmlns="http://www.w3.org/2000/svg">
<mask id="mask0_2508_13207" style="mask-type:alpha" maskUnits="userSpaceOnUse" x="3" y="0" width="368" height="368">
<rect x="3" width="368" height="368" fill="#D9D9D9"/>
</mask>
<g mask="url(#mask0_2508_13207)">
<path d="M185.368 339.918L146.219 312.29L56.0942 342.014L86.8465 280.928L12.5 256.5L52.5677 163.883L23.8696 107.477L82.058 98.0715V65.1539L108.507 67.5052L119.5 31.9998L214.777 76.9102L278.958 56.3367V98.0715H331.512L302.5 124.5L349 172.5L318.338 245.613L331.512 279.982L278.958 302.5L261.5 339.918L207 312.29L185.368 339.918Z" fill="#212121"/>
<path d="M118 83.0005L166 98.0005" stroke="#ECFF81" stroke-width="23" stroke-linecap="round" stroke-linejoin="round"/>
<path d="M108.089 60.3513C118.932 56.1086 122.518 68.2864 123.5 73.0005L116 94.0005C110.696 96.9468 99.2505 98.6534 91.59 95.7071C83.9296 92.7608 77.4477 86.2789 78.037 82.7433C78.5084 79.9148 81.3761 79.2077 82.751 79.2077C81.5724 78.6184 79.2156 76.8507 79.8048 73.9043C80.2763 71.5473 83.5368 70.958 85.1081 70.958C83.7331 70.3687 81.5726 68.0115 82.751 65.6546C84.1653 62.8262 88.0544 62.9047 89.8222 63.2976C88.8401 62.9047 87.2294 61.294 88.6436 57.994C91.0007 52.3371 102.59 57.2085 108.089 60.3513Z" fill="#ECFF81"/>
<path d="M102.786 65.6548C102.365 66.3471 101.851 67.1455 101.298 68.0118M111.625 83.922C109.739 81.5649 110.054 75.8687 110.447 73.3152C107.574 76.5985 104.415 80.7394 101.368 82.1542M101.298 68.0118C100.026 67.4226 97.1292 66.1262 95.715 65.6548M101.298 68.0118C100.268 69.6261 99.1013 71.4762 98.1415 73.3152M98.1415 73.3152C96.547 72.726 92.8865 71.5474 91.0008 71.5474M98.1415 73.3152C96.9147 75.666 96.0258 77.9986 96.1911 79.7971M96.1911 79.7971C96.28 80.7638 96.6734 81.5762 97.4826 82.1542C98.7346 82.8696 100.041 82.7707 101.368 82.1542M96.1911 79.7971C94.461 79.4043 90.2937 78.7364 87.4653 79.2079M101.368 82.1542C102.823 83.1363 103.729 85.1005 102.786 87.4576C101.843 89.8146 97.4828 88.6361 92.1794 88.0468" stroke="#121212" stroke-width="2" stroke-linecap="round" stroke-linejoin="round"/>
<path d="M266.723 86.1675L218.119 99.0768" stroke="#ECFF81" stroke-width="23" stroke-linecap="round" stroke-linejoin="round"/>
<path d="M277.604 63.9682C266.955 59.2604 262.846 71.2716 261.661 75.9388L268.245 97.2437C273.416 100.417 284.778 102.617 292.558 100.005C300.339 97.3926 307.095 91.1972 306.66 87.6394C306.311 84.7932 303.477 83.9627 302.103 83.9032C303.306 83.3655 305.737 81.7013 305.276 78.7322C304.907 76.357 301.675 75.6272 300.105 75.5592C301.504 75.03 303.765 72.7684 302.689 70.3628C301.399 67.4758 297.51 67.386 295.727 67.702C296.725 67.352 298.404 65.8125 297.134 62.4544C295.023 56.7008 283.235 61.0663 277.604 63.9682Z" fill="#ECFF81"/>
<path d="M282.673 69.4963C283.064 70.2062 283.543 71.0261 284.058 71.9156M273.052 87.364C275.038 85.0907 274.97 79.3863 274.688 76.8182C277.416 80.2227 280.393 84.4963 283.375 86.0416M284.058 71.9156C285.354 71.3819 288.304 70.2121 289.737 69.8023M284.058 71.9156C285.017 73.5729 286.102 75.4718 286.982 77.3505M286.982 77.3505C288.6 76.8308 292.308 75.8118 294.192 75.8933M286.982 77.3505C288.106 79.7522 288.893 82.1211 288.65 83.9108M288.65 83.9108C288.519 84.8727 288.091 85.6673 287.258 86.2097C285.976 86.8703 284.675 86.715 283.375 86.0416M288.65 83.9108C290.395 83.5931 294.588 83.1062 297.393 83.6996M283.375 86.0416C281.88 86.9599 280.89 88.8831 281.73 91.2787C282.57 93.6743 286.977 92.6856 292.301 92.3263" stroke="#121212" stroke-width="2" stroke-linecap="round" stroke-linejoin="round"/>
<path d="M194.475 128.854L204.999 106.502C178.66 97.8477 149.714 106.439 132.361 128.061L127.866 133.662L142.914 149.648L147.922 143.671C159.263 130.137 177.397 124.365 194.475 128.854Z" fill="#ECFF81"/>
<path d="M124.292 172.99L123.823 172.719C120.338 170.703 117.1 168.288 114.173 165.523L97.1653 149.452C94.8758 147.289 92.7504 144.958 90.8068 142.479L89.6529 141.008L93.4496 137.281L127.966 169.571L124.292 172.99Z" fill="#337CC8"/>
<path d="M117.454 137.869L124.163 131.15C125.142 130.17 126.713 130.116 127.756 131.029L145.859 146.862C146.988 147.85 147.064 149.582 146.024 150.665L128.052 169.368L127.584 169.096C124.099 167.08 120.86 164.665 117.934 161.9L100.926 145.829C98.6362 143.666 96.5108 141.335 94.5671 138.857L93.4133 137.385L96.8909 134.357C100.306 131.382 105.377 131.334 108.849 134.242L113.396 138.05C114.591 139.05 116.352 138.972 117.454 137.869Z" fill="#4D98E6"/>
<path d="M180.999 129.547L170.475 107.195C196.814 98.541 225.76 107.132 243.113 128.755L247.608 134.355L232.56 150.341L227.552 144.365C216.211 130.83 198.077 125.058 180.999 129.547Z" fill="#ECFF81"/>
<path d="M251.182 173.684L251.651 173.412C255.136 171.396 258.374 168.981 261.301 166.216L278.309 150.145C280.598 147.982 282.724 145.651 284.667 143.173L285.821 141.701L282.024 137.974L247.508 170.264L251.182 173.684Z" fill="#337CC8"/>
<path d="M258.02 138.562L251.311 131.843C250.332 130.863 248.761 130.81 247.718 131.722L229.615 147.555C228.485 148.544 228.41 150.276 229.45 151.358L247.422 170.061L247.89 169.79C251.375 167.774 254.614 165.359 257.54 162.594L274.548 146.523C276.838 144.359 278.963 142.029 280.907 139.55L282.061 138.079L278.583 135.05C275.168 132.076 270.097 132.027 266.625 134.935L262.078 138.743C260.883 139.744 259.121 139.665 258.02 138.562Z" fill="#4D98E6"/>
<path d="M175.822 26.4401C165.086 27.0533 156.353 34.7519 156.353 44.3858C156.353 46.0022 156.599 47.5673 157.058 49.0528C157.729 51.2195 156.518 53.8901 154.356 54.5738C145.057 57.5138 138.394 65.4539 138.394 74.7876C138.394 77.6298 139.012 80.3427 140.134 82.8245C140.949 84.6277 140.247 86.8933 138.507 87.8355C131.011 91.8947 126 99.264 126 107.681C126 120.481 137.586 130.857 151.878 130.857L215.601 130.857C229.894 130.857 241.48 120.481 241.48 107.681C241.48 103.04 239.957 98.7181 237.333 95.0935C236.208 93.5382 236.456 91.2781 237.892 90.003C242.263 86.1201 244.97 80.737 244.97 74.7876C244.97 69.3392 242.699 64.3657 238.96 60.5844C237.511 59.1201 237.487 56.6063 238.833 55.0476C241.379 52.0994 242.894 48.401 242.894 44.3858C242.894 34.7519 234.097 25.2742 226.218 18.7151C225.157 17.8316 224.113 16.9328 223.088 16.0497C219.751 13.1754 216.607 10.4682 213.676 8.99999C216.459 15.8529 206.859 20.9097 199.763 23.0796C193.92 24.8664 185.288 25.8995 175.822 26.4401Z" fill="#AE7DFF"/>
<mask id="path-16-inside-1_2508_13207" fill="white">
<path fill-rule="evenodd" clip-rule="evenodd" d="M181.611 79.4064C183.139 77.7278 184.435 75.333 185.186 72.5312C186.822 66.4265 185.25 60.7012 181.675 59.7433C178.1 58.7854 173.876 62.9577 172.241 69.0624C170.98 73.7654 171.624 78.2433 173.621 80.4896C175.084 79.3997 176.766 78.7795 178.555 78.7795C179.62 78.7795 180.646 78.999 181.611 79.4064Z"/>
</mask>
<path fill-rule="evenodd" clip-rule="evenodd" d="M181.611 79.4064C183.139 77.7278 184.435 75.333 185.186 72.5312C186.822 66.4265 185.25 60.7012 181.675 59.7433C178.1 58.7854 173.876 62.9577 172.241 69.0624C170.98 73.7654 171.624 78.2433 173.621 80.4896C175.084 79.3997 176.766 78.7795 178.555 78.7795C179.62 78.7795 180.646 78.999 181.611 79.4064Z" fill="white"/>
<path d="M185.186 72.5312L184.097 72.2394L185.186 72.5312ZM181.611 79.4064L181.173 80.445L181.908 80.7553L182.445 80.1653L181.611 79.4064ZM181.675 59.7433L181.967 58.6543L181.675 59.7433ZM172.241 69.0624L173.33 69.3542L172.241 69.0624ZM173.621 80.4896L172.778 81.2386L173.465 82.0114L174.294 81.3938L173.621 80.4896ZM184.097 72.2394C183.386 74.8926 182.168 77.12 180.778 78.6474L182.445 80.1653C184.111 78.3356 185.485 75.7734 186.275 72.823L184.097 72.2394ZM181.383 60.8323C182.625 61.1649 183.716 62.3864 184.297 64.5057C184.871 66.5949 184.872 69.3459 184.097 72.2394L186.275 72.823C187.136 69.6118 187.169 66.4478 186.472 63.9087C185.783 61.3997 184.3 59.2795 181.967 58.6543L181.383 60.8323ZM173.33 69.3542C174.105 66.4607 175.482 64.079 177.023 62.5565C178.587 61.012 180.142 60.4997 181.383 60.8323L181.967 58.6543C179.633 58.0291 177.289 59.1239 175.438 60.9523C173.565 62.8027 172.012 65.5594 171.152 68.7706L173.33 69.3542ZM174.463 79.7407C173.663 78.8399 173.062 77.3993 172.828 75.555C172.595 73.7254 172.734 71.5779 173.33 69.3542L171.152 68.7706C170.487 71.25 170.318 73.6929 170.591 75.8396C170.862 77.9716 171.582 79.8931 172.778 81.2386L174.463 79.7407ZM174.294 81.3938C175.587 80.4308 177.037 79.9069 178.555 79.9069L178.555 77.6521C176.495 77.6521 174.581 78.3686 172.947 79.5855L174.294 81.3938ZM178.555 79.9069C179.462 79.9069 180.34 80.0934 181.173 80.445L182.05 78.3677C180.953 77.9046 179.777 77.6521 178.555 77.6521L178.555 79.9069Z" fill="#121212" mask="url(#path-16-inside-1_2508_13207)"/>
<path fill-rule="evenodd" clip-rule="evenodd" d="M185.186 72.531C184.55 74.9051 183.522 76.9869 182.294 78.5884C181.107 78.2563 179.855 78.0787 178.563 78.0787C178.155 78.0787 177.752 78.0963 177.353 78.1309C176.654 76.1643 176.375 73.8457 176.646 71.4108C176.669 71.2071 176.695 71.0051 176.725 70.8048L182.145 67.8843C182.469 67.7096 182.374 67.221 182.008 67.18L177.901 66.7205C179.2 63.8143 181.306 61.6928 183.679 60.9658C185.775 63.1629 186.473 67.7296 185.186 72.531Z" fill="#121212"/>
<circle cx="180.083" cy="82.1215" r="0.82475" transform="rotate(28.715 180.083 82.1215)" fill="#121212"/>
<ellipse cx="175.493" cy="81.4877" rx="0.82475" ry="0.824751" transform="rotate(28.7151 175.493 81.4877)" fill="#121212"/>
<circle cx="177.396" cy="84.8813" r="0.82475" transform="rotate(28.715 177.396 84.8813)" fill="#121212"/>
<path d="M179.904 57.9881C178.532 57.9289 177.242 58.3934 176.12 59.3641" stroke="#121212" stroke-width="1.1274" stroke-linecap="round" stroke-linejoin="round"/>
<mask id="path-23-inside-2_2508_13207" fill="white">
<path fill-rule="evenodd" clip-rule="evenodd" d="M202.624 79.0626C204.152 77.3841 205.448 74.9893 206.199 72.1874C207.835 66.0827 206.263 60.3574 202.688 59.3996C199.113 58.4417 194.889 62.614 193.253 68.7187C191.993 73.4217 192.637 77.8996 194.633 80.1459C196.097 79.0559 197.779 78.4357 199.568 78.4357C200.632 78.4357 201.659 78.6552 202.624 79.0626Z"/>
</mask>
<path fill-rule="evenodd" clip-rule="evenodd" d="M202.624 79.0626C204.152 77.3841 205.448 74.9893 206.199 72.1874C207.835 66.0827 206.263 60.3574 202.688 59.3996C199.113 58.4417 194.889 62.614 193.253 68.7187C191.993 73.4217 192.637 77.8996 194.633 80.1459C196.097 79.0559 197.779 78.4357 199.568 78.4357C200.632 78.4357 201.659 78.6552 202.624 79.0626Z" fill="white"/>
<path d="M206.199 72.1874L205.11 71.8956L206.199 72.1874ZM202.624 79.0626L202.185 80.1013L202.92 80.4115L203.458 79.8216L202.624 79.0626ZM202.688 59.3996L202.98 58.3106L202.688 59.3996ZM193.253 68.7187L194.342 69.0105L193.253 68.7187ZM194.633 80.1459L193.791 80.8948L194.478 81.6677L195.307 81.05L194.633 80.1459ZM205.11 71.8956C204.399 74.5489 203.181 76.7763 201.79 78.3036L203.458 79.8216C205.123 77.9918 206.497 75.4296 207.288 72.4792L205.11 71.8956ZM202.396 60.4885C203.637 60.8212 204.728 62.0426 205.31 64.1619C205.884 66.2511 205.885 69.0021 205.11 71.8956L207.288 72.4792C208.148 69.268 208.182 66.104 207.484 63.5649C206.796 61.056 205.313 58.9358 202.98 58.3106L202.396 60.4885ZM194.342 69.0105C195.118 66.117 196.494 63.7353 198.036 62.2127C199.599 60.6683 201.155 60.1559 202.396 60.4885L202.98 58.3106C200.646 57.6853 198.302 58.7802 196.451 60.6086C194.578 62.4589 193.025 65.2157 192.164 68.4269L194.342 69.0105ZM195.476 79.3969C194.675 78.4961 194.075 77.0556 193.84 75.2113C193.608 73.3817 193.746 71.2342 194.342 69.0105L192.164 68.4269C191.5 70.9062 191.331 73.3491 191.604 75.4958C191.875 77.6278 192.595 79.5494 193.791 80.8948L195.476 79.3969ZM195.307 81.05C196.6 80.087 198.05 79.5631 199.568 79.5631L199.568 77.3083C197.507 77.3083 195.593 78.0249 193.96 79.2417L195.307 81.05ZM199.568 79.5631C200.475 79.5631 201.352 79.7496 202.185 80.1013L203.062 78.024C201.965 77.5609 200.79 77.3083 199.568 77.3083L199.568 79.5631Z" fill="#121212" mask="url(#path-23-inside-2_2508_13207)"/>
<path fill-rule="evenodd" clip-rule="evenodd" d="M206.199 72.1872C205.563 74.5613 204.535 76.6432 203.307 78.2447C202.12 77.9125 200.868 77.7349 199.575 77.7349C199.168 77.7349 198.765 77.7526 198.366 77.7871C197.667 75.8206 197.388 73.5019 197.659 71.0671C197.681 70.8634 197.708 70.6614 197.737 70.4611L203.157 67.5406C203.482 67.3658 203.387 66.8773 203.021 66.8363L198.914 66.3768C200.212 63.4705 202.319 61.349 204.692 60.6221C206.788 62.8192 207.485 67.3859 206.199 72.1872Z" fill="#121212"/>
<circle cx="201.096" cy="81.7778" r="0.82475" transform="rotate(28.715 201.096 81.7778)" fill="#121212"/>
<ellipse cx="196.506" cy="81.144" rx="0.82475" ry="0.824751" transform="rotate(28.7151 196.506 81.144)" fill="#121212"/>
<circle cx="198.409" cy="84.5375" r="0.82475" transform="rotate(28.715 198.409 84.5375)" fill="#121212"/>
<path d="M200.917 57.6443C199.544 57.5851 198.255 58.0496 197.133 59.0203" stroke="#121212" stroke-width="1.1274" stroke-linecap="round" stroke-linejoin="round"/>
<path d="M193.205 82.2805C191.977 83.9258 190.107 84.9766 188.011 84.9766C185.916 84.9766 184.045 83.9258 182.818 82.2805" stroke="#121212" stroke-width="1.08889" stroke-linecap="round"/>
<path d="M190.776 86.7728C190.131 87.2604 189.149 87.5718 188.049 87.5718C186.949 87.5718 185.967 87.2604 185.323 86.7728" stroke="#121212" stroke-width="1.08889" stroke-linecap="round"/>
<ellipse cx="187.966" cy="79.108" rx="3.10138" ry="2.37116" fill="#6AF2BB"/>
<path d="M240.885 298.319L240.998 298.863C241.844 302.917 242.213 307.055 242.099 311.193L241.437 335.243C241.348 338.48 241.018 341.705 240.449 344.893L240.111 346.787L234.641 346.432L235.735 297.847L240.885 298.319Z" fill="#337CC8"/>
<path d="M207.513 324.325L189.02 323.697C176.854 323.284 167.32 313.101 167.726 300.952L168.473 278.558L192.04 279.232L191.882 290.068C191.808 295.077 195.735 299.24 200.746 299.467L207.515 299.774L207.513 324.325Z" fill="#ECFF81"/>
<path d="M218.608 327.631L208.836 327.094C207.412 327.015 206.292 325.847 206.276 324.423L206.004 299.693C205.987 298.151 207.263 296.909 208.805 296.964L235.519 297.92L235.633 298.464C236.478 302.517 236.848 306.655 236.734 310.793L236.072 334.844C235.983 338.08 235.653 341.306 235.084 344.493L234.746 346.388L230.027 345.797C225.4 345.219 221.881 341.364 221.73 336.711L221.532 330.617C221.48 329.016 220.21 327.719 218.608 327.631Z" fill="#4D98E6"/>
<path d="M192.131 349.296L191.562 349.179C187.513 348.349 183.575 347.051 179.827 345.311L157.933 335.152C154.998 333.79 152.169 332.212 149.468 330.431L147.85 329.364L150.347 324.494L194.608 344.766L192.131 349.296Z" fill="#337CC8"/>
<path d="M181.443 308.412L193.586 280.861L216.738 289.839L204.028 318.151L181.443 308.412Z" fill="#ECFF81"/>
<path d="M184.031 302.542L189.119 290.999" stroke="#121212" stroke-width="2.05634" stroke-linecap="round" stroke-linejoin="round"/>
<path d="M174.001 317.267L178.374 308.522C179.011 307.249 180.524 306.687 181.837 307.236L204.7 316.797C206.125 317.393 206.763 319.06 206.098 320.455L194.628 344.539L194.059 344.422C190.01 343.592 186.072 342.294 182.324 340.555L160.429 330.395C157.495 329.033 154.666 327.455 151.965 325.674L150.347 324.607L152.769 320.507C155.133 316.502 160.057 314.809 164.384 316.511L170.105 318.761C171.595 319.346 173.285 318.698 174.001 317.267Z" fill="#4D98E6"/>
<path d="M254.241 215.104C254.241 221.14 252.616 226.797 249.777 231.662C247.331 235.855 246.379 240.916 247.324 245.676C247.801 248.076 248.051 250.557 248.051 253.096C248.051 274.037 231.051 291.013 210.08 291.013C203.189 291.013 196.728 289.181 191.157 285.977C184.71 282.269 175.739 282.172 168.72 284.63C165.834 285.64 162.732 286.189 159.501 286.189C144.117 286.189 131.645 273.735 131.645 258.373C131.645 254.571 129.535 250.874 126.426 248.687C120.724 244.676 117 238.051 117 230.557C117 223.544 120.262 217.292 125.353 213.231C128.561 210.673 130.588 206.467 130.588 202.365C130.588 199.018 131.331 195.845 132.661 193C133.061 192.145 132.393 191.046 131.486 190.783C127.875 189.738 125.449 185.614 124.591 183.331C126.622 186.402 131.744 186.489 135.634 185.901C137.664 185.594 139.419 184.55 141.168 183.476C145.748 180.662 149.866 176.347 152.428 171.622C156.183 164.701 163.52 160 171.957 160C175.114 160 178.118 160.658 180.837 161.845C187.02 164.544 194.897 165.864 201.623 165.344C202.197 165.299 202.776 165.277 203.361 165.277C210.873 165.277 217.513 169.003 221.529 174.706C224.446 178.849 228.434 182.546 233.16 184.374C245.495 189.143 254.241 201.104 254.241 215.104Z" fill="#71F7FF"/>
<mask id="path-41-inside-3_2508_13207" fill="white">
<path fill-rule="evenodd" clip-rule="evenodd" d="M175.386 237.938C176.459 235.864 177.11 233.141 177.11 230.159C177.11 223.661 174.019 218.393 170.206 218.393C166.393 218.393 163.301 223.661 163.301 230.159C163.301 235.165 165.136 239.441 167.722 241.14C168.888 239.668 170.396 238.605 172.177 238.129C173.237 237.845 174.317 237.79 175.386 237.938Z"/>
</mask>
<path fill-rule="evenodd" clip-rule="evenodd" d="M175.386 237.938C176.459 235.864 177.11 233.141 177.11 230.159C177.11 223.661 174.019 218.393 170.206 218.393C166.393 218.393 163.301 223.661 163.301 230.159C163.301 235.165 165.136 239.441 167.722 241.14C168.888 239.668 170.396 238.605 172.177 238.129C173.237 237.845 174.317 237.79 175.386 237.938Z" fill="white"/>
<path d="M177.11 230.159L178.27 230.16L177.11 230.159ZM175.386 237.938L175.228 239.086L176.04 239.198L176.416 238.471L175.386 237.938ZM170.206 218.393L170.205 217.234L170.206 218.393ZM163.301 230.159L162.142 230.158L163.301 230.159ZM167.722 241.14L167.086 242.108L167.973 242.692L168.631 241.86L167.722 241.14ZM175.951 230.158C175.951 232.982 175.333 235.518 174.356 237.405L176.416 238.471C177.586 236.211 178.27 233.301 178.27 230.16L175.951 230.158ZM170.207 219.552C171.533 219.552 172.944 220.476 174.088 222.425C175.216 224.347 175.951 227.078 175.951 230.158L178.27 230.16C178.27 226.741 177.459 223.59 176.088 221.254C174.733 218.944 172.692 217.234 170.205 217.234L170.207 219.552ZM164.461 230.16C164.461 227.08 165.196 224.349 166.324 222.426C167.468 220.476 168.88 219.552 170.207 219.552L170.205 217.234C167.718 217.234 165.678 218.944 164.323 221.252C162.952 223.588 162.142 226.739 162.142 230.158L164.461 230.16ZM168.358 240.172C167.321 239.491 166.34 238.22 165.615 236.451C164.895 234.696 164.461 232.527 164.461 230.16L162.142 230.158C162.142 232.797 162.625 235.269 163.469 237.328C164.308 239.374 165.537 241.09 167.086 242.108L168.358 240.172ZM168.631 241.86C169.662 240.559 170.966 239.653 172.478 239.248L171.876 237.009C169.827 237.557 168.114 238.778 166.813 240.421L168.631 241.86ZM172.478 239.248C173.381 239.007 174.305 238.958 175.228 239.086L175.544 236.79C174.329 236.622 173.092 236.684 171.876 237.009L172.478 239.248Z" fill="#121212" mask="url(#path-41-inside-3_2508_13207)"/>
<path fill-rule="evenodd" clip-rule="evenodd" d="M177.11 230.158C177.11 232.685 176.643 235.026 175.847 236.944C174.577 236.93 173.284 237.086 171.998 237.431C171.592 237.539 171.195 237.664 170.808 237.804C169.589 236.037 168.694 233.809 168.315 231.319C168.283 231.11 168.255 230.901 168.231 230.693L172.844 226.352C173.12 226.093 172.896 225.632 172.521 225.689L168.313 226.326C168.831 223.095 170.36 220.428 172.526 219.073C175.198 220.698 177.11 225.047 177.11 230.158Z" fill="#121212"/>
<ellipse cx="0.849309" cy="0.848466" rx="0.849309" ry="0.848466" transform="matrix(0.972039 0.236723 -0.237463 0.970934 173.965 240.016)" fill="#121212"/>
<ellipse cx="0.84931" cy="0.848467" rx="0.84931" ry="0.848467" transform="matrix(0.972039 0.236723 -0.237464 0.970934 169.228 240.608)" fill="#121212"/>
<ellipse cx="0.84931" cy="0.848467" rx="0.84931" ry="0.848467" transform="matrix(0.972039 0.236723 -0.237464 0.970934 172.026 243.472)" fill="#121212"/>
<path d="M167.975 217.121C166.593 217.427 165.434 218.231 164.576 219.494" stroke="#121212" stroke-width="1.15916" stroke-linecap="round" stroke-linejoin="round"/>
<mask id="path-48-inside-4_2508_13207" fill="white">
<path fill-rule="evenodd" clip-rule="evenodd" d="M196.205 232.006C197.278 229.933 197.93 227.21 197.93 224.227C197.93 217.729 194.838 212.461 191.025 212.461C187.212 212.461 184.12 217.729 184.12 224.227C184.12 229.233 185.955 233.509 188.541 235.209C189.707 233.737 191.215 232.673 192.996 232.197C194.056 231.914 195.136 231.859 196.205 232.006Z"/>
</mask>
<path fill-rule="evenodd" clip-rule="evenodd" d="M196.205 232.006C197.278 229.933 197.93 227.21 197.93 224.227C197.93 217.729 194.838 212.461 191.025 212.461C187.212 212.461 184.12 217.729 184.12 224.227C184.12 229.233 185.955 233.509 188.541 235.209C189.707 233.737 191.215 232.673 192.996 232.197C194.056 231.914 195.136 231.859 196.205 232.006Z" fill="white"/>
<path d="M197.93 224.227L199.089 224.228L197.93 224.227ZM196.205 232.006L196.047 233.154L196.859 233.267L197.235 232.54L196.205 232.006ZM191.025 212.461L191.024 211.303L191.025 212.461ZM184.12 224.227L182.961 224.226L184.12 224.227ZM188.541 235.209L187.905 236.177L188.792 236.76L189.451 235.928L188.541 235.209ZM196.77 224.226C196.77 227.05 196.152 229.586 195.175 231.473L197.235 232.54C198.405 230.279 199.089 227.369 199.089 224.228L196.77 224.226ZM191.026 213.62C192.352 213.62 193.763 214.544 194.907 216.493C196.035 218.415 196.77 221.146 196.77 224.226L199.089 224.228C199.089 220.81 198.278 217.658 196.907 215.322C195.552 213.013 193.511 211.303 191.024 211.303L191.026 213.62ZM185.28 224.228C185.28 221.149 186.015 218.417 187.143 216.494C188.287 214.545 189.7 213.62 191.026 213.62L191.024 211.303C188.537 211.303 186.497 213.012 185.142 215.321C183.772 217.656 182.961 220.808 182.961 224.226L185.28 224.228ZM189.178 234.241C188.14 233.559 187.159 232.288 186.434 230.519C185.714 228.764 185.28 226.595 185.28 224.228L182.961 224.226C182.961 226.865 183.444 229.337 184.288 231.396C185.127 233.442 186.356 235.159 187.905 236.177L189.178 234.241ZM189.451 235.928C190.481 234.628 191.785 233.721 193.297 233.317L192.696 231.078C190.646 231.626 188.933 232.846 187.632 234.489L189.451 235.928ZM193.297 233.317C194.2 233.075 195.124 233.027 196.047 233.154L196.363 230.859C195.148 230.691 193.911 230.753 192.696 231.078L193.297 233.317Z" fill="#121212" mask="url(#path-48-inside-4_2508_13207)"/>
<path fill-rule="evenodd" clip-rule="evenodd" d="M197.93 224.227C197.93 226.754 197.462 229.095 196.666 231.012C195.396 230.998 194.104 231.155 192.817 231.499C192.411 231.607 192.015 231.732 191.627 231.873C190.408 230.106 189.513 227.878 189.134 225.388C189.102 225.178 189.074 224.969 189.05 224.761L193.663 220.42C193.939 220.161 193.715 219.701 193.34 219.757L189.132 220.395C189.65 217.163 191.179 214.496 193.345 213.142C196.017 214.766 197.93 219.116 197.93 224.227Z" fill="#121212"/>
<ellipse cx="0.849309" cy="0.848466" rx="0.849309" ry="0.848466" transform="matrix(0.972039 0.236723 -0.237463 0.970934 194.784 234.084)" fill="#121212"/>
<ellipse cx="0.84931" cy="0.848467" rx="0.84931" ry="0.848467" transform="matrix(0.972039 0.236723 -0.237464 0.970934 190.047 234.677)" fill="#121212"/>
<ellipse cx="0.84931" cy="0.848467" rx="0.84931" ry="0.848467" transform="matrix(0.972039 0.236723 -0.237464 0.970934 192.846 237.541)" fill="#121212"/>
<path d="M188.794 211.189C187.413 211.495 186.253 212.3 185.395 213.562" stroke="#121212" stroke-width="1.15916" stroke-linecap="round" stroke-linejoin="round"/>
<path d="M187.687 237.715C186.904 239.676 185.322 241.217 183.237 241.775C181.151 242.332 179.01 241.787 177.349 240.479" stroke="#121212" stroke-width="1.11956" stroke-linecap="round"/>
<path d="M186.467 242.826C185.956 243.481 185.062 244.052 183.967 244.345C182.872 244.637 181.812 244.59 181.04 244.277" stroke="#121212" stroke-width="1.11956" stroke-linecap="round"/>
<ellipse cx="3.1951" cy="2.4383" rx="3.1951" ry="2.4383" transform="matrix(0.966063 -0.258305 0.259334 0.965788 177.903 234.437)" fill="#9146FF"/>
<path d="M50.1402 172.291L82.2401 177.175" stroke="white" stroke-width="12"/>
<path d="M65.4916 174.593C64.8329 192.701 59.5815 221.065 44.5828 218.825C32.7981 217.065 33.9072 205.014 36.0439 197.258" stroke="white" stroke-width="12"/>
<path d="M74.4882 191.956L106.588 196.84" stroke="white" stroke-width="12"/>
<path d="M89.8396 194.259C89.181 212.367 83.9295 240.73 68.9308 238.491C57.1461 236.731 58.2553 224.679 60.3919 216.924" stroke="white" stroke-width="12"/>
<rect width="9" height="24.5004" transform="matrix(0.768269 -0.640127 -0.64013 -0.768267 292.374 280.658)" fill="#71F7FF"/>
<rect width="9" height="13" transform="matrix(0.741944 0.670462 0.670459 -0.741946 102 286.646)" fill="#ECFF81"/>
<rect width="7.3742" height="10.12" transform="matrix(-0.624344 0.78115 -0.780578 -0.625058 316.504 263.326)" fill="#337CC8"/>
<path d="M274.229 185.534L272 195.168" stroke="white" stroke-width="12"/>
<path d="M346 219.354C344.243 211.53 338.289 185.534 325.796 185.534C308.666 185.534 312.765 215.63 315.254 226.821L299.882 187.73L288.053 232.003L278.337 201.164" stroke="white" stroke-width="12" stroke-linejoin="bevel"/>
</g>
</svg>
