<svg width="73" height="29" viewBox="0 0 73 29" fill="none" xmlns="http://www.w3.org/2000/svg">
<path d="M9.36 8.996L11.088 18.248H11.142L11.826 8.996H15.156L13.302 22.352H9.666L7.686 13.01H7.56L5.562 22.352H2.106L0.072 8.996H3.402L4.104 18.248H4.158L5.868 8.996H9.36ZM15.6376 17.456C15.6376 16.628 15.7576 15.884 15.9976 15.224C16.2376 14.564 16.5736 14 17.0056 13.532C17.4376 13.076 17.9536 12.722 18.5536 12.47C19.1656 12.218 19.8376 12.092 20.5696 12.092C21.3136 12.092 21.9736 12.224 22.5496 12.488C23.1376 12.752 23.6356 13.124 24.0436 13.604C24.4396 14.072 24.7456 14.642 24.9616 15.314C25.1776 15.974 25.2856 16.7 25.2856 17.492L25.2136 18.482H18.7156C18.7516 18.95 18.9616 19.304 19.3456 19.544C19.7296 19.784 20.1796 19.904 20.6956 19.904C21.1636 19.904 21.5656 19.814 21.9016 19.634C22.2496 19.454 22.5676 19.184 22.8556 18.824L24.8896 20.588C24.3496 21.32 23.7196 21.86 22.9996 22.208C22.2796 22.544 21.4696 22.712 20.5696 22.712C19.8376 22.712 19.1656 22.592 18.5536 22.352C17.9536 22.112 17.4316 21.764 16.9876 21.308C16.5436 20.852 16.2016 20.3 15.9616 19.652C15.7216 19.004 15.6136 18.272 15.6376 17.456ZM22.2436 16.07C22.1716 15.662 21.9736 15.356 21.6496 15.152C21.3376 14.948 20.9836 14.846 20.5876 14.846C20.1316 14.846 19.7476 14.954 19.4356 15.17C19.1236 15.386 18.9436 15.686 18.8956 16.07H22.2436ZM37.2048 20.3L38.2308 22.244L35.2248 23.486L34.4148 22.01C34.0908 22.094 33.7488 22.16 33.3888 22.208C33.0408 22.244 32.6808 22.262 32.3088 22.262C30.2928 22.262 28.7268 21.662 27.6108 20.462C26.4948 19.262 25.9368 17.6 25.9368 15.476C25.9368 13.352 26.4948 11.69 27.6108 10.49C28.7268 9.29 30.2928 8.69 32.3088 8.69C34.3368 8.69 35.9148 9.29 37.0428 10.49C38.1828 11.69 38.7528 13.352 38.7528 15.476C38.7528 16.484 38.6208 17.396 38.3568 18.212C38.0928 19.028 37.7088 19.724 37.2048 20.3ZM32.3088 19.31C33.2448 19.31 34.0128 18.992 34.6128 18.356C35.2128 17.708 35.5128 16.748 35.5128 15.476C35.5128 14.24 35.2068 13.292 34.5948 12.632C33.9948 11.96 33.2328 11.624 32.3088 11.624C31.3968 11.624 30.6468 11.96 30.0588 12.632C29.4708 13.292 29.1768 14.24 29.1768 15.476C29.1768 16.748 29.4648 17.708 30.0408 18.356C30.6168 18.992 31.3728 19.31 32.3088 19.31ZM48.6336 12.452V22.352H45.4836V21.776C45.2556 21.968 44.9556 22.142 44.5836 22.298C44.2116 22.454 43.8096 22.55 43.3776 22.586H43.1436C41.9316 22.586 41.0496 22.232 40.4976 21.524C39.9456 20.816 39.6696 19.868 39.6696 18.68V12.452H42.8196V17.33C42.8196 18.242 42.9396 18.842 43.1796 19.13C43.4196 19.418 43.7196 19.556 44.0796 19.544C44.3916 19.544 44.6556 19.496 44.8716 19.4C45.0876 19.304 45.2916 19.148 45.4836 18.932V12.452H48.6336ZM49.7934 12.452H52.9074V22.352H49.7934V12.452ZM52.9074 11.408H49.7934V8.996H52.9074V11.408ZM58.2398 22.352H53.6678V21.074L57.1418 15.26H53.8118V12.452H61.4438V13.478L57.8258 19.544H58.7078C59.3198 19.544 59.8358 19.544 60.2558 19.544C60.6758 19.532 61.1018 19.496 61.5338 19.436V22.19C61.3298 22.25 61.0898 22.292 60.8138 22.316C60.5498 22.328 60.2678 22.34 59.9678 22.352C59.6798 22.364 59.3798 22.37 59.0678 22.37C58.7678 22.358 58.4918 22.352 58.2398 22.352Z" fill="white"/>
<rect width="3.86336" height="11.0726" transform="matrix(-0.716015 -0.698084 0.698087 -0.716013 63.7661 10.625)" fill="#71F7FF"/>
<rect width="3.86336" height="5.31211" transform="matrix(-0.975687 -0.219167 0.219171 -0.975686 70.876 18.2913)" fill="#ECFF81"/>
</svg>
