<svg width="375" height="368" viewBox="0 0 375 368" fill="none" xmlns="http://www.w3.org/2000/svg">
<mask id="mask0_1937_25691" style="mask-type:alpha" maskUnits="userSpaceOnUse" x="1" y="0" width="335" height="368">
<rect x="1" width="335" height="368" fill="#D9D9D9"/>
</mask>
<g mask="url(#mask0_1937_25691)">
<path d="M258.961 140.81L244.487 99.5803C244.094 98.4625 244.218 97.2283 244.823 96.2101L265.364 61.6837L241.088 67.9485C238.87 68.5211 236.624 67.1164 236.169 64.8708L230.604 37.4427L193.134 43.4723C191.701 43.703 190.255 43.1389 189.356 41.9986L178.92 28.7525L153.201 42.6662C151.865 43.3889 150.235 43.2926 148.993 42.4176L102.995 10L91.4836 34.6678C90.7194 36.3053 88.9522 37.2272 87.172 36.9168L40.3345 28.7525L34.8703 67.8424C34.5941 69.8184 32.904 71.2887 30.9088 71.2887H0.999939L24.2399 105.052C24.8776 105.979 25.0958 107.131 24.841 108.226L16.0934 145.841L53.3811 146.643C56.0219 146.7 57.8835 149.255 57.128 151.786L40.3345 208.045L144.434 156.9C145.149 156.549 145.953 156.419 146.743 156.528L195.386 163.222L207.041 142.826C207.753 141.579 209.078 140.81 210.513 140.81H258.961Z" fill="#212121"/>
<path d="M211.52 112.595L220.084 119.02" stroke="white" stroke-width="12"/>
<path d="M202.246 64.3965L212.309 102.359" stroke="white" stroke-width="12"/>
<path d="M56.5661 137.307L78.1271 74.8419M56.1408 74.8419L84.2747 57.6044L78.1271 74.8419M78.1271 74.8419C91.1619 68.3135 113.116 59.1659 115.86 70.2682C117.718 77.7847 102.321 87.1349 84.2747 95.6592M58.8851 106.733C66.9445 103.397 75.8952 99.6173 84.2747 95.6592M84.2747 95.6592C96.6504 106.733 100.767 115.423 103.511 137.307" stroke="white" stroke-width="12" stroke-linejoin="bevel"/>
<path d="M120.376 95.4987C120.376 105.763 119.619 126.6 135.926 126.6C152.234 126.6 149.648 104.254 149.648 93.6692L165.656 134.376C163.065 122.722 158.796 91.3825 176.633 91.3823C189.643 91.3822 195.843 118.454 197.673 126.6" stroke="white" stroke-width="12" stroke-linejoin="bevel"/>
<rect width="8.2328" height="11.8918" transform="matrix(0.741944 0.670462 0.670459 -0.741946 20.6241 187.823)" fill="#337CC8"/>
<path d="M50.7117 245.075C48.1738 253.199 33.8858 269.764 -2.96324 271.033" stroke="#ECFF81" stroke-width="25.1383" stroke-linecap="round" stroke-linejoin="round"/>
<path d="M45.2918 216.44C39.6168 217.293 40.8711 233.431 41.6102 238.823L50.8842 254.237C57.8228 257.783 67.831 248.984 71.9129 247.274C75.9949 245.563 92.61 244.671 91.971 238.045C91.6507 234.724 85.8395 234.393 79.7437 235.767C85.7274 232.718 90.8022 228.816 88.9947 225.33C87.2817 222.026 81.5325 223.75 75.8666 227.104C80.0298 222.686 82.7823 217.907 80.495 215.468C77.8172 212.613 71.7906 216.934 66.8201 222.41C70.1792 216.794 72.3854 210.752 69.4027 208.75C64.7117 205.601 54.9325 220.932 51.2483 229.407C50.8505 228.938 50.4509 228.584 50.0993 228.346C50.2689 227.384 50.4059 226.219 50.454 224.998C50.6222 220.729 49.7043 215.777 45.2918 216.44Z" fill="#ECFF81"/>
<path d="M52.6785 240.674C53.6318 237.641 53.6042 235.142 53.1226 233.188" stroke="#121212" stroke-width="2" stroke-linecap="round" stroke-linejoin="round"/>
<path d="M188.305 271.246L208.869 266.797L210.387 285.841C212.039 306.567 192.618 322.649 172.564 317.161L166.031 315.374L172.191 296.259L176.281 297.591C183.005 299.782 189.816 294.492 189.358 287.435L188.305 271.246Z" fill="#ECFF81"/>
<path d="M131.861 323.025L131.574 324.301L136.174 325.89L152.02 285.662L147.642 284.279C145.367 287.583 143.485 291.142 142.033 294.882L134.613 313.999C133.473 316.935 132.554 319.952 131.861 323.025Z" fill="#337CC8"/>
<path d="M155.998 316.061L163.76 318.83C165.065 319.296 166.508 318.669 167.058 317.398L175.624 297.618C176.221 296.241 175.545 294.644 174.141 294.113L152.171 285.796C149.896 289.101 148.014 292.659 146.562 296.4L139.142 315.516C138.002 318.453 137.083 321.47 136.391 324.543L136.103 325.818L139.52 326.775C143.881 327.996 148.483 325.864 150.371 321.748L152.256 317.639C152.906 316.223 154.53 315.538 155.998 316.061Z" fill="#4D98E6"/>
<path d="M127.103 189.486C127.103 193.312 127.103 200.115 130.282 206.49C133.462 212.865 139.385 213.717 141.963 220.943C145.36 230.465 138.131 238.828 143.02 248.999C148.332 260.052 158.729 260.052 165.522 261.752" stroke="#ECFF81" stroke-width="23" stroke-linecap="round" stroke-linejoin="round"/>
<path d="M255.951 262.884C260.8 260.674 272.301 260.349 273.379 247.472C274.313 236.324 264.866 232.277 261.863 222.851C259.555 215.604 260.873 207.218 257.941 200.793C256.227 197.038 253.723 194.03 251.348 191.703C250.961 191.323 250.577 190.962 250.201 190.618C249.451 189.933 248.73 189.319 248.071 188.773" stroke="#ECFF81" stroke-width="23" stroke-linecap="round" stroke-linejoin="round"/>
<path d="M287.491 337.879L288.579 337.162L286.364 332.84L247.101 350.829L249.298 354.849C253.225 354.043 257.045 352.784 260.681 351.096L279.258 342.473C282.112 341.148 284.864 339.612 287.491 337.879Z" fill="#337CC8"/>
<path d="M258.779 318.57L238.745 273.624L218.207 281.59L238.745 327.212L258.779 318.57Z" fill="#ECFF81"/>
<path d="M265.273 326.21L261.598 318.86C260.979 317.622 259.507 317.075 258.23 317.609L238.372 325.916C236.986 326.496 236.366 328.117 237.012 329.474L247.083 350.627C251.01 349.822 254.83 348.563 258.466 346.875L277.043 338.252C279.897 336.927 282.649 335.391 285.276 333.658L286.364 332.94L284.567 329.896C282.267 326.001 277.478 324.353 273.268 326.009L269.063 327.664C267.614 328.234 265.969 327.603 265.273 326.21Z" fill="#4D98E6"/>
<path d="M220.348 199.707C229.428 200.227 236.814 206.757 236.814 214.929C236.814 216.04 236.677 217.123 236.419 218.164C235.873 220.363 237.091 223.054 239.225 223.814C246.711 226.482 252.004 233.045 252.004 240.718C252.004 242.924 251.566 245.039 250.765 246.995C250.016 248.824 250.715 251.088 252.426 252.077C258.478 255.574 262.487 261.677 262.487 268.621C262.487 279.478 252.687 288.28 240.599 288.28H186.703C174.614 288.28 164.815 279.478 164.815 268.621C164.815 264.878 165.979 261.38 168.001 258.402C169.077 256.816 168.829 254.561 167.436 253.245C163.983 249.984 161.863 245.574 161.863 240.718C161.863 236.313 163.608 232.273 166.511 229.126C167.906 227.615 167.927 225.1 166.652 223.487C164.742 221.071 163.619 218.118 163.619 214.929C163.619 206.757 171.059 198.717 177.723 193.154C178.621 192.404 179.504 191.642 180.371 190.893C183.193 188.455 185.852 186.158 188.331 184.913C185.977 190.726 194.097 195.015 200.099 196.856C205.041 198.372 212.341 199.248 220.348 199.707Z" fill="#AE7DFF"/>
<path d="M145.672 173.36C149.245 177.208 139.141 188.036 135.536 191.472L120.109 197.207C113.124 195.785 110.984 183.782 109.04 180.23C107.096 176.677 95.7191 166.561 99.9562 162.186C102.08 159.993 106.426 163.071 110.002 167.531C107.462 161.937 106.057 156.251 109.339 154.788C112.449 153.402 115.578 157.915 117.717 163.547C117.26 158.011 118.017 153.022 121.045 152.583C124.589 152.068 126.435 158.597 126.867 165.349C127.668 159.416 129.536 153.836 132.812 154.105C137.963 154.529 136.213 171.074 134.014 179.238C134.566 179.129 135.053 179.104 135.441 179.134C135.868 178.35 136.435 177.438 137.097 176.537C139.412 173.387 142.893 170.369 145.672 173.36Z" fill="#ECFF81"/>
<path d="M126.563 186.481C127.612 183.767 129.057 181.996 130.516 180.873" stroke="#121212" stroke-width="2" stroke-linecap="round" stroke-linejoin="round"/>
<path d="M229.302 178.396C226.156 182.599 237.348 192.299 241.295 195.334L257.242 199.406C264.039 197.254 264.897 185.092 266.455 181.353C268.012 177.615 278.256 166.353 273.58 162.451C271.236 160.494 267.24 164.015 264.155 168.828C266.09 162.996 266.885 157.194 263.468 156.087C260.228 155.037 257.594 159.855 256.062 165.682C255.931 160.129 254.651 155.248 251.594 155.131C248.015 154.994 246.87 161.681 247.154 168.441C245.731 162.626 243.283 157.275 240.054 157.889C234.976 158.855 238.466 175.122 241.516 183.008C240.956 182.958 240.468 182.985 240.086 183.056C239.578 182.321 238.918 181.474 238.164 180.648C235.529 177.761 231.748 175.128 229.302 178.396Z" fill="#ECFF81"/>
<path d="M249.69 189.423C248.36 186.835 246.736 185.226 245.166 184.263" stroke="#121212" stroke-width="2" stroke-linecap="round" stroke-linejoin="round"/>
<mask id="path-24-inside-1_1937_25691" fill="white">
<path fill-rule="evenodd" clip-rule="evenodd" d="M214.938 246.174C213.54 244.639 212.354 242.448 211.667 239.885C210.171 234.301 211.609 229.063 214.879 228.187C218.149 227.311 222.013 231.128 223.509 236.712C224.662 241.014 224.073 245.11 222.247 247.165C220.909 246.168 219.37 245.601 217.733 245.601C216.759 245.601 215.82 245.801 214.938 246.174Z"/>
</mask>
<path fill-rule="evenodd" clip-rule="evenodd" d="M214.938 246.174C213.54 244.639 212.354 242.448 211.667 239.885C210.171 234.301 211.609 229.063 214.879 228.187C218.149 227.311 222.013 231.128 223.509 236.712C224.662 241.014 224.073 245.11 222.247 247.165C220.909 246.168 219.37 245.601 217.733 245.601C216.759 245.601 215.82 245.801 214.938 246.174Z" fill="white"/>
<path d="M211.667 239.885L210.578 240.177L211.667 239.885ZM214.938 246.174L215.376 247.213L214.641 247.523L214.104 246.933L214.938 246.174ZM214.879 228.187L214.587 227.098L214.879 228.187ZM223.509 236.712L224.598 236.42L223.509 236.712ZM222.247 247.165L223.09 247.914L222.403 248.687L221.574 248.069L222.247 247.165ZM212.756 239.593C213.403 242.008 214.511 244.031 215.771 245.415L214.104 246.933C212.568 245.246 211.305 242.888 210.578 240.177L212.756 239.593ZM215.171 229.276C214.082 229.568 213.101 230.647 212.573 232.569C212.054 234.461 212.051 236.96 212.756 239.593L210.578 240.177C209.788 237.226 209.756 234.314 210.399 231.972C211.033 229.66 212.406 227.683 214.587 227.098L215.171 229.276ZM222.42 237.004C221.715 234.37 220.463 232.208 219.067 230.829C217.649 229.428 216.26 228.984 215.171 229.276L214.587 227.098C216.768 226.514 218.946 227.54 220.652 229.225C222.379 230.931 223.808 233.469 224.598 236.42L222.42 237.004ZM221.404 246.416C222.12 245.611 222.664 244.314 222.877 242.639C223.088 240.979 222.963 239.027 222.42 237.004L224.598 236.42C225.209 238.699 225.365 240.946 225.114 242.924C224.864 244.886 224.2 246.664 223.09 247.914L221.404 246.416ZM221.574 248.069C220.405 247.199 219.099 246.728 217.733 246.728V244.473C219.641 244.473 221.412 245.137 222.921 246.261L221.574 248.069ZM217.733 246.728C216.917 246.728 216.127 246.896 215.376 247.213L214.499 245.135C215.514 244.707 216.602 244.473 217.733 244.473V246.728Z" fill="#121212" mask="url(#path-24-inside-1_1937_25691)"/>
<path fill-rule="evenodd" clip-rule="evenodd" d="M211.667 239.885C212.249 242.057 213.189 243.961 214.313 245.426C215.399 245.122 216.544 244.96 217.726 244.96C218.099 244.96 218.468 244.976 218.832 245.008C219.472 243.209 219.727 241.088 219.479 238.86C219.459 238.674 219.435 238.489 219.407 238.306L214.54 235.683C214.215 235.508 214.31 235.02 214.676 234.979L218.331 234.57C217.143 231.911 215.216 229.971 213.046 229.306C211.129 231.315 210.491 235.493 211.667 239.885Z" fill="#121212"/>
<ellipse cx="0.754445" cy="0.754446" rx="0.754445" ry="0.754446" transform="matrix(-0.87702 0.480454 0.480454 0.87702 216.635 247.634)" fill="#121212"/>
<ellipse cx="0.754445" cy="0.754446" rx="0.754445" ry="0.754446" transform="matrix(-0.87702 0.480454 0.480454 0.87702 220.833 247.054)" fill="#121212"/>
<ellipse cx="0.754445" cy="0.754446" rx="0.754445" ry="0.754446" transform="matrix(-0.87702 0.480454 0.480454 0.87702 219.093 250.158)" fill="#121212"/>
<path d="M216.499 226.581C217.755 226.527 218.934 226.952 219.961 227.84" stroke="#121212" stroke-width="1.1274" stroke-linecap="round" stroke-linejoin="round"/>
<mask id="path-31-inside-2_1937_25691" fill="white">
<path fill-rule="evenodd" clip-rule="evenodd" d="M195.716 245.86C194.318 244.325 193.133 242.134 192.446 239.571C190.95 233.987 192.387 228.749 195.658 227.873C198.928 226.997 202.792 230.814 204.288 236.398C205.441 240.7 204.852 244.796 203.025 246.851C201.687 245.854 200.148 245.287 198.512 245.287C197.538 245.287 196.599 245.488 195.716 245.86Z"/>
</mask>
<path fill-rule="evenodd" clip-rule="evenodd" d="M195.716 245.86C194.318 244.325 193.133 242.134 192.446 239.571C190.95 233.987 192.387 228.749 195.658 227.873C198.928 226.997 202.792 230.814 204.288 236.398C205.441 240.7 204.852 244.796 203.025 246.851C201.687 245.854 200.148 245.287 198.512 245.287C197.538 245.287 196.599 245.488 195.716 245.86Z" fill="white"/>
<path d="M192.446 239.571L191.357 239.863L192.446 239.571ZM195.716 245.86L196.154 246.899L195.419 247.209L194.882 246.619L195.716 245.86ZM195.658 227.873L195.366 226.784L195.658 227.873ZM204.288 236.398L205.377 236.106L204.288 236.398ZM203.025 246.851L203.868 247.6L203.181 248.373L202.352 247.755L203.025 246.851ZM193.535 239.279C194.182 241.694 195.289 243.717 196.55 245.101L194.882 246.619C193.347 244.932 192.083 242.574 191.357 239.863L193.535 239.279ZM195.949 228.962C194.86 229.254 193.879 230.333 193.351 232.255C192.832 234.147 192.829 236.646 193.535 239.279L191.357 239.863C190.566 236.912 190.534 234 191.177 231.658C191.812 229.346 193.185 227.369 195.366 226.784L195.949 228.962ZM203.199 236.69C202.493 234.056 201.241 231.894 199.846 230.515C198.428 229.114 197.038 228.67 195.949 228.962L195.366 226.784C197.547 226.2 199.725 227.226 201.43 228.911C203.158 230.617 204.586 233.155 205.377 236.106L203.199 236.69ZM202.183 246.102C202.898 245.297 203.442 244 203.655 242.325C203.867 240.665 203.741 238.713 203.199 236.69L205.377 236.106C205.987 238.385 206.144 240.632 205.892 242.61C205.643 244.572 204.979 246.35 203.868 247.6L202.183 246.102ZM202.352 247.755C201.184 246.885 199.877 246.414 198.512 246.414V244.159C200.42 244.159 202.19 244.823 203.699 245.947L202.352 247.755ZM198.512 246.414C197.696 246.414 196.905 246.582 196.154 246.899L195.278 244.821C196.292 244.393 197.38 244.159 198.512 244.159V246.414Z" fill="#121212" mask="url(#path-31-inside-2_1937_25691)"/>
<path fill-rule="evenodd" clip-rule="evenodd" d="M192.446 239.571C193.028 241.743 193.968 243.647 195.092 245.112C196.177 244.808 197.322 244.646 198.505 244.646C198.877 244.646 199.246 244.662 199.611 244.694C200.25 242.895 200.506 240.774 200.258 238.546C200.237 238.36 200.213 238.175 200.186 237.992L195.318 235.369C194.994 235.194 195.089 234.706 195.455 234.665L199.11 234.256C197.922 231.597 195.995 229.657 193.824 228.992C191.907 231.002 191.269 235.179 192.446 239.571Z" fill="#121212"/>
<ellipse cx="0.754445" cy="0.754446" rx="0.754445" ry="0.754446" transform="matrix(-0.87702 0.480454 0.480454 0.87702 197.413 247.32)" fill="#121212"/>
<ellipse cx="0.754445" cy="0.754446" rx="0.754445" ry="0.754446" transform="matrix(-0.87702 0.480454 0.480454 0.87702 201.612 246.74)" fill="#121212"/>
<ellipse cx="0.754445" cy="0.754446" rx="0.754445" ry="0.754446" transform="matrix(-0.87702 0.480454 0.480454 0.87702 199.871 249.844)" fill="#121212"/>
<path d="M197.278 226.267C198.533 226.213 199.713 226.638 200.739 227.526" stroke="#121212" stroke-width="1.1274" stroke-linecap="round" stroke-linejoin="round"/>
<ellipse cx="2.83701" cy="2.16903" rx="2.83701" ry="2.16903" transform="matrix(-1 0 0 1 211.962 243.734)" fill="#6AF2BB"/>
<ellipse cx="212.833" cy="254.484" rx="2.74427" ry="4.1164" fill="#121212"/>
<path d="M209.631 259.058C210.546 260.43 211.778 260.887 213.29 260.887C214.802 260.887 216.035 259.515 216.492 258.601" stroke="#121212" stroke-width="1.1274" stroke-linecap="round" stroke-linejoin="round"/>
<path d="M78.3115 277.996L86.9796 294.165L103.662 284.881L97.7259 302.205L112.741 309.645L94.1364 310.799L94.4688 329.522L84.8007 311.354L68.118 323.637L75.0544 307.314L62.0393 299.874L77.6439 295.72L78.3115 277.996Z" fill="#71F7FF"/>
<g filter="url(#filter0_d_1937_25691)">
<path fill-rule="evenodd" clip-rule="evenodd" d="M250.914 113.521C252.68 117.534 257.366 119.356 261.379 117.59C265.392 115.824 267.214 111.138 265.448 107.125C265.333 106.863 265.206 106.612 265.069 106.372L272.035 100.445C273.606 101.715 275.799 102.072 277.757 101.211C280.558 99.9781 281.829 96.7083 280.597 93.9074C280.234 93.0832 279.703 92.4015 279.065 91.8734L284.998 84.7027C286.727 86.1337 288.156 87.9784 289.115 90.1588C292.418 97.6644 289.011 106.426 281.505 109.729C279.522 110.602 277.452 111.006 275.418 110.99C275.167 117.371 271.366 123.363 265.127 126.108C256.409 129.945 246.232 125.987 242.396 117.269L250.914 113.521Z" fill="#337CC8"/>
</g>
</g>
<defs>
<filter id="filter0_d_1937_25691" x="241.34" y="84.7026" width="50.0923" height="44.9819" filterUnits="userSpaceOnUse" color-interpolation-filters="sRGB">
<feFlood flood-opacity="0" result="BackgroundImageFix"/>
<feColorMatrix in="SourceAlpha" type="matrix" values="0 0 0 0 0 0 0 0 0 0 0 0 0 0 0 0 0 0 127 0" result="hardAlpha"/>
<feOffset dy="1.05565"/>
<feGaussianBlur stdDeviation="0.527826"/>
<feComposite in2="hardAlpha" operator="out"/>
<feColorMatrix type="matrix" values="0 0 0 0 0.6125 0 0 0 0 0.594635 0 0 0 0 0.594635 0 0 0 0.25 0"/>
<feBlend mode="normal" in2="BackgroundImageFix" result="effect1_dropShadow_1937_25691"/>
<feBlend mode="normal" in="SourceGraphic" in2="effect1_dropShadow_1937_25691" result="shape"/>
</filter>
</defs>
</svg>
