<svg width="375" height="368" viewBox="0 0 375 368" fill="none" xmlns="http://www.w3.org/2000/svg">
<mask id="mask0_2508_13083" style="mask-type:alpha" maskUnits="userSpaceOnUse" x="4" y="0" width="368" height="368">
<rect x="4" width="368" height="368" fill="#D9D9D9"/>
</mask>
<g mask="url(#mask0_2508_13083)">
<path d="M77 55.0003C34.1465 82.4847 38.3845 132.033 45.8602 153.372C77 233.786 164.318 256.224 199 255.5C255.136 246.094 314.479 139.881 328.768 110.242C333.614 100.189 358.265 35.1232 292.227 20.0171C239.397 7.9322 191.315 55.9366 178 77C169.849 67.3151 130.567 20.6448 77 55.0003Z" fill="#212121"/>
<path d="M75.546 50.3445C32.6925 77.8289 36.9306 127.377 44.4063 148.716C75.546 229.13 162.864 251.568 197.546 250.844C253.682 241.438 313.025 135.226 327.314 105.586C332.161 95.5332 356.811 30.4674 290.773 15.3613C237.943 3.27644 189.861 51.2808 176.546 72.3442C168.395 62.6594 129.113 15.989 75.546 50.3445Z" fill="#212121"/>
<path d="M156.03 286.34L167.976 260.97L165.162 260.691C135.895 257.792 107.144 269.876 88.736 292.813L80.3989 303.201L97.4791 321.346L103.743 313.87C116.884 298.187 135.664 288.299 156.03 286.34Z" fill="#ECFF81"/>
<path d="M76.3423 347.841L75.1019 347.123C71.6169 345.107 68.3784 342.692 65.452 339.927L45.0884 320.685C42.7989 318.522 40.6735 316.191 38.7299 313.713L37.026 311.54L41.3354 307.31L80.5121 343.96L76.3423 347.841Z" fill="#337CC8"/>
<path d="M68.3181 308.24L76.4307 300.115C77.4097 299.135 78.9813 299.082 80.0241 299.994L101.101 318.429C102.231 319.418 102.306 321.15 101.266 322.232L80.6106 343.729L79.3702 343.011C75.8852 340.995 72.6467 338.58 69.7203 335.815L49.3567 316.573C47.0672 314.41 44.9418 312.079 42.9982 309.601L41.2943 307.428L46.0422 303.293C49.4575 300.319 54.5286 300.27 58.0005 303.178L64.2603 308.421C65.4552 309.421 67.2168 309.343 68.3181 308.24Z" fill="#4D98E6"/>
<path d="M194.621 291.638L206.567 266.268L203.753 265.99C174.486 263.091 145.735 275.175 127.327 298.112L118.99 308.5L136.07 326.644L142.334 319.169C155.475 303.486 174.255 293.598 194.621 291.638Z" fill="#ECFF81"/>
<path d="M114.934 353.14L113.693 352.422C110.208 350.406 106.97 347.991 104.043 345.226L83.6797 325.984C81.3902 323.821 79.2648 321.49 77.3211 319.012L75.6172 316.839L79.9266 312.609L119.103 349.258L114.934 353.14Z" fill="#337CC8"/>
<path d="M106.909 313.539L115.022 305.414C116.001 304.434 117.572 304.381 118.615 305.293L139.692 323.728C140.822 324.716 140.897 326.448 139.857 327.531L119.202 349.028L117.961 348.31C114.476 346.294 111.238 343.879 108.311 341.114L87.9477 321.872C85.6582 319.709 83.5328 317.378 81.5891 314.899L79.8852 312.727L84.6332 308.592C88.0484 305.618 93.1195 305.569 96.5915 308.477L102.851 313.719C104.046 314.72 105.808 314.642 106.909 313.539Z" fill="#4D98E6"/>
<path d="M223.828 286.34L211.882 260.97L214.696 260.691C243.963 257.792 272.713 269.876 291.122 292.813L299.459 303.201L282.379 321.346L276.115 313.87C262.974 298.187 244.194 288.299 223.828 286.34Z" fill="#ECFF81"/>
<path d="M303.515 347.841L304.756 347.123C308.241 345.107 311.479 342.692 314.406 339.927L334.769 320.685C337.059 318.522 339.184 316.191 341.128 313.713L342.832 311.54L338.522 307.31L299.346 343.96L303.515 347.841Z" fill="#337CC8"/>
<path d="M311.54 308.24L303.427 300.115C302.448 299.135 300.877 299.082 299.834 299.994L278.756 318.429C277.627 319.418 277.551 321.15 278.592 322.232L299.247 343.729L300.488 343.011C303.973 340.995 307.211 338.58 310.137 335.815L330.501 316.573C332.791 314.41 334.916 312.079 336.86 309.601L338.563 307.428L333.816 303.293C330.4 300.319 325.329 300.27 321.857 303.178L315.597 308.421C314.403 309.421 312.641 309.343 311.54 308.24Z" fill="#4D98E6"/>
<path d="M185.237 291.638L173.291 266.268L176.105 265.99C205.372 263.091 234.122 275.175 252.531 298.112L260.868 308.5L243.788 326.644L237.524 319.169C224.383 303.486 205.603 293.598 185.237 291.638Z" fill="#ECFF81"/>
<path d="M264.924 353.14L266.165 352.422C269.65 350.406 272.888 347.991 275.815 345.226L296.178 325.984C298.468 323.821 300.593 321.49 302.537 319.012L304.241 316.839L299.931 312.609L260.754 349.258L264.924 353.14Z" fill="#337CC8"/>
<path d="M272.949 313.539L264.836 305.414C263.857 304.434 262.286 304.381 261.243 305.293L240.166 323.728C239.036 324.716 238.96 326.448 240.001 327.531L260.656 349.028L261.897 348.31C265.382 346.294 268.62 343.879 271.546 341.114L291.91 321.872C294.2 319.709 296.325 317.378 298.269 314.899L299.973 312.727L295.225 308.592C291.809 305.618 286.738 305.569 283.266 308.477L277.007 313.719C275.812 314.72 274.05 314.642 272.949 313.539Z" fill="#4D98E6"/>
<path d="M163.152 242.153C165.094 248.924 168.831 254.693 173.696 259.092C177.192 262.252 179.433 266.725 179.706 271.43C179.882 274.47 180.395 277.538 181.27 280.589C187.643 302.81 210.811 315.661 233.017 309.293C240.94 307.02 247.669 302.609 252.759 296.865C257.563 291.444 265.866 288.947 273.059 289.798C276.986 290.263 281.068 289.971 285.106 288.813C301.396 284.141 310.812 267.138 306.137 250.836C304.979 246.801 306.094 242.236 308.723 238.963C313.534 232.976 315.458 224.82 313.179 216.872C311.046 209.435 305.694 203.793 299.072 201.029C294.891 199.283 291.459 195.437 290.21 191.082C289.163 187.429 287.339 184.21 284.969 181.551C284.359 180.867 284.687 179.672 285.484 179.216C289.178 177.101 290.549 171.809 290.768 169.064C289.53 173.012 283.951 174.648 279.616 175.175C277.531 175.428 275.464 174.886 273.445 174.304C273.132 174.214 272.817 174.13 272.499 174.052C267.163 172.743 261.969 169.678 258.245 165.637C252.175 159.051 242.703 156.055 233.512 158.691C229.63 159.804 226.238 161.796 223.49 164.389C218.711 168.898 211.778 172.202 205.271 173.105C204.136 173.263 202.998 173.502 201.865 173.827C193.53 176.217 187.454 182.659 185.159 190.402C183.758 195.128 181.016 199.637 177.001 202.496C164.799 211.184 158.786 226.927 163.152 242.153Z" fill="#71F7FF"/>
<mask id="path-17-inside-1_2508_13083" fill="white">
<path fill-rule="evenodd" clip-rule="evenodd" d="M253.6 242.435C251.833 240.561 250.315 237.869 249.407 234.704C247.429 227.808 249.099 221.28 253.137 220.122C257.175 218.964 262.052 223.615 264.029 230.51C265.553 235.822 264.911 240.917 262.69 243.506C261.008 242.298 259.087 241.627 257.056 241.663C255.848 241.684 254.688 241.954 253.6 242.435Z"/>
</mask>
<path fill-rule="evenodd" clip-rule="evenodd" d="M253.6 242.435C251.833 240.561 250.315 237.869 249.407 234.704C247.429 227.808 249.099 221.28 253.137 220.122C257.175 218.964 262.052 223.615 264.029 230.51C265.553 235.822 264.911 240.917 262.69 243.506C261.008 242.298 259.087 241.627 257.056 241.663C255.848 241.684 254.688 241.954 253.6 242.435Z" fill="white"/>
<path d="M249.407 234.704L248.323 235.015L248.323 235.015L249.407 234.704ZM253.6 242.435L254.057 243.466L253.328 243.789L252.78 243.209L253.6 242.435ZM253.137 220.122L253.448 221.205L253.137 220.122ZM264.029 230.51L262.946 230.821L264.029 230.51ZM262.69 243.506L263.546 244.24L262.873 245.025L262.033 244.421L262.69 243.506ZM250.491 234.393C251.356 237.41 252.793 239.936 254.421 241.662L252.78 243.209C250.872 241.185 249.273 238.327 248.323 235.015L250.491 234.393ZM253.448 221.205C251.973 221.629 250.734 223.098 250.109 225.541C249.491 227.954 249.547 231.103 250.491 234.393L248.323 235.015C247.289 231.409 247.191 227.847 247.924 224.982C248.649 222.147 250.264 219.773 252.826 219.038L253.448 221.205ZM262.946 230.821C262.002 227.531 260.38 224.831 258.578 223.112C256.753 221.371 254.924 220.782 253.448 221.205L252.826 219.038C255.389 218.303 258.017 219.461 260.134 221.48C262.274 223.521 264.079 226.593 265.113 230.199L262.946 230.821ZM261.835 242.772C262.751 241.703 263.412 240.024 263.643 237.906C263.873 235.804 263.671 233.35 262.946 230.821L265.113 230.199C265.911 232.983 266.15 235.732 265.885 238.152C265.621 240.557 264.85 242.72 263.546 244.24L261.835 242.772ZM262.033 244.421C260.523 243.338 258.835 242.759 257.076 242.79L257.037 240.536C259.338 240.495 261.493 241.258 263.348 242.59L262.033 244.421ZM257.076 242.79C256.026 242.808 255.013 243.042 254.057 243.466L253.144 241.404C254.362 240.865 255.671 240.56 257.037 240.536L257.076 242.79Z" fill="#121212" mask="url(#path-17-inside-1_2508_13083)"/>
<path fill-rule="evenodd" clip-rule="evenodd" d="M249.407 234.704C250.176 237.385 251.383 239.727 252.81 241.52C254.15 241.12 255.567 240.894 257.034 240.868C257.496 240.86 257.954 240.872 258.407 240.903C259.162 238.657 259.432 236.021 259.076 233.263C259.047 233.032 259.013 232.803 258.975 232.576L252.622 229.295C252.294 229.126 252.381 228.636 252.746 228.588L257.559 227.965C256.027 224.692 253.594 222.327 250.887 221.549C248.553 224.084 247.852 229.28 249.407 234.704Z" fill="#121212"/>
<ellipse cx="0.936112" cy="0.936113" rx="0.936112" ry="0.936113" transform="matrix(-0.868475 0.495734 0.495733 0.868475 255.738 244.209)" fill="#121212"/>
<ellipse cx="0.936112" cy="0.936113" rx="0.936112" ry="0.936113" transform="matrix(-0.868475 0.495734 0.495733 0.868475 260.934 243.399)" fill="#121212"/>
<circle cx="0.936112" cy="0.936112" r="0.936112" transform="matrix(-0.868475 0.495733 0.495733 0.868475 258.842 247.288)" fill="#121212"/>
<path d="M255.112 218.094C256.669 218 258.141 218.501 259.434 219.581" stroke="#121212" stroke-width="1.1274" stroke-linecap="round" stroke-linejoin="round"/>
<mask id="path-24-inside-2_2508_13083" fill="white">
<path fill-rule="evenodd" clip-rule="evenodd" d="M229.75 242.463C227.982 240.588 226.464 237.896 225.557 234.732C223.579 227.836 225.249 221.308 229.287 220.15C233.325 218.992 238.201 223.643 240.179 230.538C241.702 235.85 241.061 240.945 238.84 243.533C237.158 242.326 235.237 241.655 233.206 241.691C231.998 241.712 230.837 241.981 229.75 242.463Z"/>
</mask>
<path fill-rule="evenodd" clip-rule="evenodd" d="M229.75 242.463C227.982 240.588 226.464 237.896 225.557 234.732C223.579 227.836 225.249 221.308 229.287 220.15C233.325 218.992 238.201 223.643 240.179 230.538C241.702 235.85 241.061 240.945 238.84 243.533C237.158 242.326 235.237 241.655 233.206 241.691C231.998 241.712 230.837 241.981 229.75 242.463Z" fill="white"/>
<path d="M225.557 234.732L224.473 235.042L224.473 235.042L225.557 234.732ZM229.75 242.463L230.207 243.494L229.477 243.817L228.93 243.236L229.75 242.463ZM229.287 220.15L229.598 221.233L229.287 220.15ZM240.179 230.538L239.095 230.849L240.179 230.538ZM238.84 243.533L239.696 244.268L239.022 245.052L238.182 244.449L238.84 243.533ZM226.64 234.421C227.505 237.438 228.943 239.964 230.57 241.689L228.93 243.236C227.022 241.213 225.423 238.355 224.473 235.042L226.64 234.421ZM229.598 221.233C228.122 221.656 226.883 223.125 226.258 225.569C225.641 227.981 225.697 231.131 226.64 234.421L224.473 235.042C223.439 231.437 223.341 227.875 224.074 225.01C224.799 222.175 226.414 219.801 228.976 219.066L229.598 221.233ZM239.095 230.849C238.152 227.559 236.53 224.858 234.727 223.14C232.902 221.399 231.073 220.81 229.598 221.233L228.976 219.066C231.538 218.331 234.166 219.489 236.284 221.508C238.423 223.549 240.228 226.621 241.263 230.227L239.095 230.849ZM237.984 242.799C238.901 241.731 239.561 240.051 239.793 237.934C240.023 235.832 239.82 233.378 239.095 230.849L241.263 230.227C242.061 233.01 242.299 235.759 242.034 238.18C241.771 240.585 241 242.747 239.696 244.268L237.984 242.799ZM238.182 244.449C236.673 243.365 234.985 242.787 233.226 242.818L233.186 240.563C235.488 240.523 237.643 241.286 239.497 242.618L238.182 244.449ZM233.226 242.818C232.175 242.836 231.163 243.07 230.207 243.494L229.294 241.432C230.512 240.893 231.82 240.587 233.186 240.563L233.226 242.818Z" fill="#121212" mask="url(#path-24-inside-2_2508_13083)"/>
<path fill-rule="evenodd" clip-rule="evenodd" d="M225.557 234.731C226.326 237.413 227.533 239.755 228.959 241.548C230.3 241.148 231.716 240.921 233.183 240.896C233.646 240.888 234.104 240.9 234.557 240.931C235.311 238.685 235.582 236.048 235.226 233.291C235.196 233.06 235.162 232.831 235.125 232.604L228.771 229.323C228.444 229.154 228.53 228.664 228.896 228.616L233.708 227.992C232.177 224.72 229.744 222.355 227.037 221.577C224.702 224.112 224.001 229.308 225.557 234.731Z" fill="#121212"/>
<ellipse cx="0.936112" cy="0.936113" rx="0.936112" ry="0.936113" transform="matrix(-0.868475 0.495734 0.495733 0.868475 231.887 244.237)" fill="#121212"/>
<ellipse cx="0.936112" cy="0.936113" rx="0.936112" ry="0.936113" transform="matrix(-0.868475 0.495734 0.495733 0.868475 237.083 243.427)" fill="#121212"/>
<circle cx="0.936112" cy="0.936112" r="0.936112" transform="matrix(-0.868475 0.495733 0.495733 0.868475 234.992 247.315)" fill="#121212"/>
<path d="M231.262 218.122C232.818 218.028 234.291 218.529 235.584 219.608" stroke="#121212" stroke-width="1.1274" stroke-linecap="round" stroke-linejoin="round"/>
<path d="M240.507 245.934C241.933 247.777 244.077 248.932 246.455 248.89C248.833 248.849 250.935 247.619 252.295 245.728" stroke="#121212" stroke-width="1.08889" stroke-linecap="round"/>
<path d="M243.354 250.987C244.095 251.527 245.216 251.861 246.464 251.839C247.712 251.818 248.821 251.445 249.542 250.878" stroke="#121212" stroke-width="1.08889" stroke-linecap="round"/>
<ellipse cx="3.52015" cy="2.69132" rx="3.52015" ry="2.69132" transform="matrix(-0.999847 0.0175058 0.0175058 0.999847 249.87 239.484)" fill="#9146FF"/>
<path d="M221.171 221.452C227.681 226.359 236.231 241.332 226.969 262.313L221.171 221.452Z" fill="#71F7FF"/>
<path d="M221.171 221.452C227.682 226.36 236.546 241.014 227.284 261.995" stroke="#121212" stroke-width="1.08889" stroke-linecap="round"/>
<path d="M123.48 180.608C111.294 181.304 101.383 190.042 101.383 200.977C101.383 203.046 101.737 205.041 102.395 206.916C103.145 209.056 101.94 211.711 99.7625 212.344C88.8714 215.512 80.9981 224.674 80.9981 235.484C80.9981 238.894 81.7818 242.14 83.1966 245.086C84.0532 246.87 83.3511 249.134 81.5948 250.045C72.8274 254.596 66.9304 263.091 66.9304 272.819C66.9304 287.347 80.0812 299.124 96.3035 299.124H168.631C184.853 299.124 198.004 287.347 198.004 272.819C198.004 267.377 196.158 262.321 192.997 258.125C191.842 256.592 192.09 254.332 193.55 253.085C198.734 248.655 201.965 242.407 201.965 235.484C201.965 229.106 199.224 223.302 194.74 218.964C193.26 217.532 193.235 215.023 194.623 213.502C197.739 210.09 199.609 205.729 199.609 200.977C199.609 190.042 189.624 179.285 180.681 171.84C179.476 170.837 178.292 169.817 177.128 168.815C173.34 165.552 169.773 162.479 166.446 160.813C169.604 168.591 158.708 174.331 150.654 176.794C144.021 178.822 134.224 179.994 123.48 180.608Z" fill="#AE7DFF"/>
<mask id="path-37-inside-3_2508_13083" fill="white">
<path fill-rule="evenodd" clip-rule="evenodd" d="M128.688 241.859C130.423 239.954 131.894 237.236 132.746 234.056C134.603 227.127 132.818 220.628 128.761 219.541C124.703 218.454 119.909 223.19 118.052 230.119C116.622 235.457 117.353 240.539 119.619 243.089C121.28 241.852 123.189 241.148 125.22 241.148C126.428 241.148 127.593 241.397 128.688 241.859Z"/>
</mask>
<path fill-rule="evenodd" clip-rule="evenodd" d="M128.688 241.859C130.423 239.954 131.894 237.236 132.746 234.056C134.603 227.127 132.818 220.628 128.761 219.541C124.703 218.454 119.909 223.19 118.052 230.119C116.622 235.457 117.353 240.539 119.619 243.089C121.28 241.852 123.189 241.148 125.22 241.148C126.428 241.148 127.593 241.397 128.688 241.859Z" fill="white"/>
<path d="M132.746 234.056L133.835 234.347L132.746 234.056ZM128.688 241.859L128.25 242.898L128.985 243.208L129.522 242.618L128.688 241.859ZM128.761 219.541L129.053 218.452L128.761 219.541ZM118.052 230.119L119.141 230.41L118.052 230.119ZM119.619 243.089L118.776 243.838L119.463 244.611L120.292 243.993L119.619 243.089ZM131.657 233.764C130.845 236.795 129.452 239.346 127.855 241.1L129.522 242.618C131.394 240.562 132.943 237.676 133.835 234.347L131.657 233.764ZM128.469 220.63C129.952 221.027 131.216 222.474 131.884 224.906C132.543 227.308 132.543 230.458 131.657 233.764L133.835 234.347C134.806 230.724 134.841 227.161 134.058 224.309C133.284 221.488 131.627 219.142 129.053 218.452L128.469 220.63ZM119.141 230.41C120.027 227.105 121.602 224.376 123.374 222.626C125.168 220.854 126.986 220.233 128.469 220.63L129.053 218.452C126.478 217.762 123.871 218.966 121.789 221.022C119.685 223.1 117.934 226.203 116.963 229.827L119.141 230.41ZM120.461 242.34C119.526 241.287 118.837 239.62 118.568 237.507C118.301 235.409 118.461 232.952 119.141 230.41L116.963 229.827C116.214 232.624 116.024 235.376 116.331 237.792C116.636 240.192 117.445 242.341 118.776 243.838L120.461 242.34ZM120.292 243.993C121.783 242.883 123.46 242.275 125.22 242.275V240.02C122.918 240.02 120.777 240.821 118.945 242.185L120.292 243.993ZM125.22 242.275C126.27 242.275 127.287 242.491 128.25 242.898L129.127 240.821C127.899 240.302 126.586 240.02 125.22 240.02V242.275Z" fill="#121212" mask="url(#path-37-inside-3_2508_13083)"/>
<path fill-rule="evenodd" clip-rule="evenodd" d="M132.746 234.055C132.024 236.75 130.858 239.113 129.463 240.931C128.116 240.554 126.696 240.352 125.228 240.352C124.766 240.352 124.308 240.372 123.856 240.412C123.062 238.179 122.745 235.548 123.053 232.784C123.079 232.553 123.108 232.324 123.142 232.096L129.437 228.704C129.761 228.53 129.667 228.041 129.3 228L124.477 227.46C125.951 224.162 128.342 221.754 131.036 220.929C133.414 223.422 134.206 228.606 132.746 234.055Z" fill="#121212"/>
<ellipse cx="126.954" cy="244.941" rx="0.936114" ry="0.936114" transform="rotate(28.715 126.954 244.941)" fill="#121212"/>
<ellipse cx="121.744" cy="244.221" rx="0.936114" ry="0.936114" transform="rotate(28.715 121.744 244.221)" fill="#121212"/>
<ellipse cx="123.904" cy="248.073" rx="0.936114" ry="0.936114" transform="rotate(28.7151 123.904 248.073)" fill="#121212"/>
<path d="M126.751 217.548C125.193 217.481 123.729 218.008 122.456 219.11" stroke="#121212" stroke-width="1.1274" stroke-linecap="round" stroke-linejoin="round"/>
<mask id="path-44-inside-4_2508_13083" fill="white">
<path fill-rule="evenodd" clip-rule="evenodd" d="M152.541 241.47C154.275 239.564 155.746 236.846 156.598 233.666C158.455 226.737 156.671 220.239 152.613 219.151C148.556 218.064 143.761 222.8 141.905 229.729C140.474 235.067 141.205 240.149 143.471 242.699C145.132 241.462 147.041 240.758 149.072 240.758C150.28 240.758 151.445 241.007 152.541 241.47Z"/>
</mask>
<path fill-rule="evenodd" clip-rule="evenodd" d="M152.541 241.47C154.275 239.564 155.746 236.846 156.598 233.666C158.455 226.737 156.671 220.239 152.613 219.151C148.556 218.064 143.761 222.8 141.905 229.729C140.474 235.067 141.205 240.149 143.471 242.699C145.132 241.462 147.041 240.758 149.072 240.758C150.28 240.758 151.445 241.007 152.541 241.47Z" fill="white"/>
<path d="M156.598 233.666L157.687 233.958L156.598 233.666ZM152.541 241.47L152.102 242.508L152.837 242.818L153.374 242.229L152.541 241.47ZM152.613 219.151L152.905 218.062L152.613 219.151ZM141.905 229.729L142.994 230.021L141.905 229.729ZM143.471 242.699L142.628 243.448L143.315 244.221L144.145 243.603L143.471 242.699ZM155.509 233.374C154.697 236.406 153.304 238.957 151.707 240.711L153.374 242.229C155.246 240.172 156.795 237.287 157.687 233.958L155.509 233.374ZM152.321 220.24C153.804 220.638 155.069 222.085 155.736 224.517C156.396 226.918 156.395 230.069 155.509 233.374L157.687 233.958C158.658 230.334 158.694 226.771 157.911 223.92C157.136 221.098 155.48 218.752 152.905 218.062L152.321 220.24ZM142.994 230.021C143.879 226.715 145.454 223.986 147.226 222.236C149.02 220.464 150.839 219.843 152.321 220.24L152.905 218.062C150.33 217.373 147.723 218.576 145.641 220.632C143.538 222.71 141.787 225.814 140.816 229.437L142.994 230.021ZM144.314 241.95C143.378 240.898 142.689 239.23 142.42 237.117C142.153 235.019 142.313 232.562 142.994 230.021L140.816 229.437C140.066 232.234 139.876 234.987 140.183 237.402C140.489 239.802 141.298 241.951 142.628 243.448L144.314 241.95ZM144.145 243.603C145.635 242.493 147.312 241.885 149.072 241.885V239.631C146.77 239.631 144.629 240.431 142.798 241.795L144.145 243.603ZM149.072 241.885C150.122 241.885 151.139 242.102 152.102 242.508L152.979 240.431C151.752 239.913 150.438 239.631 149.072 239.631V241.885Z" fill="#121212" mask="url(#path-44-inside-4_2508_13083)"/>
<path fill-rule="evenodd" clip-rule="evenodd" d="M156.598 233.666C155.876 236.36 154.71 238.723 153.315 240.541C151.968 240.164 150.548 239.963 149.08 239.963C148.618 239.963 148.16 239.983 147.708 240.022C146.914 237.79 146.597 235.158 146.905 232.394C146.931 232.163 146.961 231.934 146.994 231.707L153.289 228.315C153.613 228.14 153.519 227.651 153.153 227.61L148.329 227.071C149.803 223.772 152.194 221.364 154.888 220.539C157.267 223.033 158.058 228.216 156.598 233.666Z" fill="#121212"/>
<ellipse cx="150.806" cy="244.551" rx="0.936114" ry="0.936114" transform="rotate(28.715 150.806 244.551)" fill="#121212"/>
<ellipse cx="145.596" cy="243.832" rx="0.936114" ry="0.936114" transform="rotate(28.715 145.596 243.832)" fill="#121212"/>
<ellipse cx="147.756" cy="247.683" rx="0.936114" ry="0.936114" transform="rotate(28.7151 147.756 247.683)" fill="#121212"/>
<path d="M150.603 217.159C149.045 217.091 147.581 217.619 146.308 218.72" stroke="#121212" stroke-width="1.1274" stroke-linecap="round" stroke-linejoin="round"/>
<path d="M141.85 245.124C140.456 246.992 138.333 248.185 135.955 248.185C133.576 248.185 131.453 246.992 130.059 245.124" stroke="#121212" stroke-width="1.08889" stroke-linecap="round"/>
<path d="M139.093 250.223C138.361 250.777 137.246 251.13 135.998 251.13C134.749 251.13 133.635 250.777 132.903 250.223" stroke="#121212" stroke-width="1.08889" stroke-linecap="round"/>
<ellipse cx="135.902" cy="241.523" rx="3.52015" ry="2.69133" fill="#6AF2BB"/>
<path d="M161.138 221.453C152.625 227.128 146.382 239.046 155.55 257.663L161.138 221.453Z" fill="#AE7DFF"/>
<path d="M161.138 221.452C152.057 227.695 147.517 239.613 155.462 254.367" stroke="#121212" stroke-width="1.08889" stroke-linecap="round"/>
<path d="M186.586 245.549L190.648 235.073L190.322 181.159L202.566 181.159L211.079 305.444L187.243 292.959L184.294 280.935C181.411 269.183 182.212 256.83 186.586 245.549Z" fill="#71F7FF"/>
<path d="M190.648 235.073L195.061 227.865C202.758 215.294 202.49 199.405 194.374 187.101L190.081 180.591L190.648 235.073Z" fill="#AE7DFF"/>
<path d="M185.259 144.992C212.568 137.886 227.813 107.724 211.641 96.7264C199.732 88.6287 186.571 103.257 185.262 111.971C183.953 103.257 170.791 88.6287 158.883 96.7264C145.49 105.834 153.639 128.085 172.347 139.5" stroke="white" stroke-width="12"/>
<path d="M101.012 136.715L106.054 128.126L102.945 137.324L109.214 140.358L101.951 139.131L96.9096 147.721L100.018 138.523L93.3631 135.367L101.012 136.715Z" fill="#71F7FF"/>
<rect width="7.3673" height="21.1139" transform="matrix(-0.474228 -0.880402 0.881412 -0.472348 119.823 135.627)" fill="#71F7FF"/>
<rect width="7.3742" height="10.12" transform="matrix(0.188882 -0.982 -0.982172 -0.187983 131.005 109.797)" fill="#337CC8"/>
<path d="M243.053 81.014L256.855 74.9935L244.875 83.4771L249.843 92.761L242.053 84.8032L228.25 90.8237L240.23 82.3401L234.898 72.5635L243.053 81.014Z" fill="#ECFF81"/>
</g>
</svg>
